<svg version="1.1" xmlns="http://www.w3.org/2000/svg" viewBox="0 0 1464.7708402908593 817.7157358872978" width="4394.312520872578" height="2453.1472076618934" filter="invert(93%) hue-rotate(180deg)">
  <!-- svg-source:excalidraw -->
  
  <defs>
    <style class="style-fonts">
      @font-face {
        font-family: "Virgil";
        src: url("https://excalidraw.com/Virgil.woff2");
      }
      @font-face {
        font-family: "Cascadia";
        src: url("https://excalidraw.com/Cascadia.woff2");
      }
    </style>
    
  </defs>
  <g stroke-linecap="round" transform="translate(1013.8857297955947 102.67484843363718) rotate(0 78.96574330215572 33.63883649694708)"><path d="M4.48 3.89 C4.48 3.89, 4.48 3.89, 4.48 3.89 M4.48 3.89 C4.48 3.89, 4.48 3.89, 4.48 3.89 M0.94 14.06 C2.58 9.85, 7.44 7.45, 10.78 2.74 M0.94 14.06 C4.01 8.96, 9.21 5.91, 10.78 2.74 M1.33 19.71 C5.58 11.91, 13.65 6.25, 17.73 0.84 M1.33 19.71 C6 13.68, 11.26 7.93, 17.73 0.84 M1.07 26.1 C8.65 15.36, 19.96 6.57, 22.72 1.2 M1.07 26.1 C6.08 19.67, 12.03 12.95, 22.72 1.2 M1.46 31.75 C11.04 23.79, 15.91 11.15, 28.36 0.8 M1.46 31.75 C8.12 23.91, 15.83 15.63, 28.36 0.8 M1.2 38.14 C12.52 22.66, 24.88 10.55, 33.35 1.16 M1.2 38.14 C13.63 23.11, 26.24 8.62, 33.35 1.16 M0.94 44.54 C13.71 27.62, 27.78 12.72, 38.99 0.77 M0.94 44.54 C16.6 28.12, 30.48 10.42, 38.99 0.77 M1.33 50.19 C14.58 36.2, 25.58 20.34, 43.98 1.13 M1.33 50.19 C12.93 35.35, 25.77 20.88, 43.98 1.13 M1.73 55.83 C15.05 39.83, 28.31 25.76, 49.62 0.73 M1.73 55.83 C15.21 41.12, 28.92 24.52, 49.62 0.73 M3.44 59.96 C18.88 44.03, 33.08 27.09, 54.61 1.1 M3.44 59.96 C14.86 47.55, 26.01 34.28, 54.61 1.1 M5.14 64.1 C19.14 48.65, 36.49 28.59, 59.6 1.46 M5.14 64.1 C18.68 47.58, 34.58 30.75, 59.6 1.46 M8.82 65.97 C31.83 39.41, 53.4 14.12, 65.24 1.06 M8.82 65.97 C30.37 40.84, 52.54 16.09, 65.24 1.06 M11.84 68.59 C33.19 47.58, 49.99 22.87, 70.23 1.42 M11.84 68.59 C33.36 44.36, 54.47 21.55, 70.23 1.42 M17.48 68.2 C33.31 50.1, 52.36 28.49, 75.87 1.03 M17.48 68.2 C37.91 44.53, 57.8 21.82, 75.87 1.03 M22.47 68.56 C41.09 48.48, 56.2 28.91, 80.86 1.39 M22.47 68.56 C36.77 52.51, 51.42 34.25, 80.86 1.39 M27.45 68.92 C41.14 50.71, 57.16 35.66, 86.5 0.99 M27.45 68.92 C43.4 51.53, 60.73 32.97, 86.5 0.99 M33.1 68.52 C47.42 50.91, 63.71 31.44, 91.49 1.35 M33.1 68.52 C50.14 48.68, 66.64 29.13, 91.49 1.35 M38.08 68.88 C54.75 45.66, 74.7 26.54, 96.47 1.71 M38.08 68.88 C50.74 52.62, 65.57 37.89, 96.47 1.71 M43.73 68.49 C58.7 47.88, 77.52 31.27, 102.12 1.32 M43.73 68.49 C59.34 51.31, 74.38 32.78, 102.12 1.32 M48.71 68.85 C69.72 44.45, 90.08 20.95, 107.1 1.68 M48.71 68.85 C65.46 49.4, 81.15 29.1, 107.1 1.68 M54.36 68.45 C68.48 52.91, 85.28 35.1, 112.75 1.28 M54.36 68.45 C65.33 53.42, 78.13 39.93, 112.75 1.28 M59.34 68.81 C82.19 43.05, 101.4 19.12, 117.73 1.64 M59.34 68.81 C72.61 52.92, 88.04 36.54, 117.73 1.64 M64.33 69.17 C77.75 55.61, 89.4 41.58, 122.72 2 M64.33 69.17 C80.55 50.97, 97.33 31.25, 122.72 2 M69.97 68.78 C94.73 42.36, 118.8 16.64, 128.36 1.61 M69.97 68.78 C85.34 49.99, 103.1 30.56, 128.36 1.61 M74.96 69.14 C85.55 56.72, 97.59 40.44, 133.35 1.97 M74.96 69.14 C88.78 54.03, 101.89 37.43, 133.35 1.97 M80.6 68.74 C95.12 52.57, 111.43 34.48, 138.99 1.57 M80.6 68.74 C99.76 47.15, 119.06 26.41, 138.99 1.57 M85.59 69.1 C101.37 49.66, 115.65 35.42, 143.98 1.93 M85.59 69.1 C103.31 47.41, 121.01 28.01, 143.98 1.93 M91.23 68.71 C111.12 43.54, 132.89 19.58, 149.62 1.54 M91.23 68.71 C107.2 50.57, 122.55 32.73, 149.62 1.54 M96.22 69.07 C111.27 52.82, 121.1 37.1, 152.64 4.16 M96.22 69.07 C118.75 42.94, 141.57 18.36, 152.64 4.16 M101.21 69.43 C116.42 49.75, 132.55 32.94, 156.32 6.03 M101.21 69.43 C121.79 46.31, 141.77 24.19, 156.32 6.03 M106.85 69.03 C123.44 50.14, 136.27 32.44, 158.02 10.17 M106.85 69.03 C119.31 53.23, 134.13 39.57, 158.02 10.17 M111.84 69.39 C123.9 55.78, 132.76 42.46, 159.73 14.3 M111.84 69.39 C121.91 58.89, 131.32 47.09, 159.73 14.3 M117.48 69 C131.68 53.34, 141.85 42.02, 159.47 20.7 M117.48 69 C129.15 54.77, 142.48 39.88, 159.47 20.7 M122.47 69.36 C137.58 54.67, 148.51 39.69, 159.21 27.1 M122.47 69.36 C137.19 53.93, 149.46 36.97, 159.21 27.1 M127.46 69.72 C138.78 56.55, 152.55 41.51, 158.95 33.49 M127.46 69.72 C140.71 55, 153.01 40.74, 158.95 33.49 M133.1 69.33 C141.35 62.53, 145.51 51.87, 159.34 39.14 M133.1 69.33 C137.82 63.58, 143.48 57.6, 159.34 39.14 M138.09 69.69 C144.48 62.98, 149.12 57.16, 159.08 45.53 M138.09 69.69 C144.47 62.64, 150.31 56.59, 159.08 45.53 M143.73 69.29 C149.56 64.66, 151.04 59.95, 158.82 51.93 M143.73 69.29 C149.54 63.03, 155.16 55.71, 158.82 51.93" stroke="#ffc9c9" stroke-width="0.5" fill="none"></path><path d="M16.82 0 M16.82 0 C58.75 -2.09, 97.28 -0.65, 141.11 0 M16.82 0 C61.98 0.42, 105.68 0.72, 141.11 0 M141.11 0 C154.11 0.71, 157.28 6.29, 157.93 16.82 M141.11 0 C152.37 0.15, 159.86 6.16, 157.93 16.82 M157.93 16.82 C156.4 27.63, 158.13 37.54, 157.93 50.46 M157.93 16.82 C157.37 24.08, 157.32 31.74, 157.93 50.46 M157.93 50.46 C159.47 60.95, 154.23 66.25, 141.11 67.28 M157.93 50.46 C157.34 60.4, 152.29 65, 141.11 67.28 M141.11 67.28 C108.07 66.87, 74.73 66.26, 16.82 67.28 M141.11 67.28 C108.77 67.37, 76.23 65.53, 16.82 67.28 M16.82 67.28 C4.62 68.03, -1.3 61.51, 0 50.46 M16.82 67.28 C4.63 67.55, -0.8 60.69, 0 50.46 M0 50.46 C0.61 40.61, 1.72 26.93, 0 16.82 M0 50.46 C-0.48 38.23, 0.51 24.19, 0 16.82 M0 16.82 C-1 5.75, 3.79 0.57, 16.82 0 M0 16.82 C-1.99 4.06, 6.53 -1.87, 16.82 0" stroke="#e03131" stroke-width="1" fill="none"></path></g><g transform="translate(1034.981271327577 124.45456969098268) rotate(0 57.882459926805495 13.740609484346123)"><text x="0" y="0" font-family="Virgil, Segoe UI Emoji" font-size="21.98497517495387px" fill="#e03131" text-anchor="start" style="white-space: pre;" direction="ltr" dominant-baseline="text-before-edge">DCRat.exe</text></g><g stroke-linecap="round" transform="translate(326.24766313561304 546.9083190679476) rotate(0 145.400105216655 61.051977881026346)"><path d="M4.41 11.79 C4.41 11.79, 4.41 11.79, 4.41 11.79 M4.41 11.79 C4.41 11.79, 4.41 11.79, 4.41 11.79 M0.87 21.96 C3.17 18.67, 5.14 16.56, 14.65 6.11 M0.87 21.96 C6.18 16.48, 10.97 11.24, 14.65 6.11 M3.23 25.34 C10.19 15.59, 17.92 6.53, 24.23 1.19 M3.23 25.34 C7.99 18.76, 13.22 14.87, 24.23 1.19 M2.97 31.73 C8.67 22.2, 16.3 14.28, 30.53 0.04 M2.97 31.73 C12.6 21.32, 21.24 10.68, 30.53 0.04 M2.71 38.13 C10.09 29.63, 15.41 23.32, 36.17 -0.36 M2.71 38.13 C11.73 27.11, 22.78 14.43, 36.17 -0.36 M3.11 43.77 C13.96 33.2, 24.65 22, 41.16 0 M3.11 43.77 C12.28 33.02, 21.33 23.24, 41.16 0 M2.84 50.17 C21.33 29.44, 37.94 11.09, 46.14 0.36 M2.84 50.17 C18.38 31.14, 34.46 12.27, 46.14 0.36 M3.24 55.82 C15.68 40.68, 29.55 23.44, 51.79 -0.03 M3.24 55.82 C19.56 35.41, 37.43 16.71, 51.79 -0.03 M2.98 62.21 C18.76 43.16, 35.56 23.59, 56.77 0.33 M2.98 62.21 C13.98 47.91, 27.28 33.49, 56.77 0.33 M2.72 68.61 C22.85 45.4, 39.81 24.57, 62.42 -0.07 M2.72 68.61 C14.3 55.15, 27.16 40.12, 62.42 -0.07 M3.11 74.25 C20.08 56.69, 32.75 39.7, 67.4 0.29 M3.11 74.25 C23.93 51.92, 43.86 27.34, 67.4 0.29 M2.85 80.65 C27.68 53.81, 53.56 24.07, 73.05 -0.1 M2.85 80.65 C30.48 49.72, 56.28 19.65, 73.05 -0.1 M3.24 86.3 C26.18 62.12, 50.59 35.84, 78.03 0.26 M3.24 86.3 C30.24 54.18, 56.54 23.61, 78.03 0.26 M2.98 92.69 C28.62 62.71, 55.16 34.72, 83.68 -0.14 M2.98 92.69 C22.04 71.88, 42.68 49.58, 83.68 -0.14 M2.06 99.85 C29.95 68.23, 55.16 38.58, 88.66 0.22 M2.06 99.85 C36.95 59.33, 71.12 20.09, 88.66 0.22 M2.46 105.49 C29.71 75.66, 53.08 44.81, 94.31 -0.17 M2.46 105.49 C33.24 71.29, 63.31 36, 94.31 -0.17 M4.82 108.87 C30.37 81.33, 54.95 50.82, 99.29 0.19 M4.82 108.87 C39.26 70.46, 73.9 31.44, 99.29 0.19 M6.53 113 C40.63 73.95, 69.32 39.61, 104.94 -0.21 M6.53 113 C26.64 91.48, 47.47 69.02, 104.94 -0.21 M9.55 115.63 C39.4 79.4, 72.14 43.59, 109.92 0.15 M9.55 115.63 C35.53 84.73, 61.23 56.05, 109.92 0.15 M12.57 118.25 C35.19 91.16, 57.35 65.98, 115.57 -0.24 M12.57 118.25 C51.9 72.52, 90.91 26.03, 115.57 -0.24 M16.24 120.12 C53.41 78.63, 92.69 34.13, 120.55 0.12 M16.24 120.12 C55.94 72.27, 99.01 24.87, 120.55 0.12 M19.92 121.99 C59.47 76.81, 98.35 33.38, 126.2 -0.27 M19.92 121.99 C42.28 94.92, 63.96 69.96, 126.2 -0.27 M24.25 123.1 C56.57 87.49, 86.45 52.81, 131.18 0.09 M24.25 123.1 C63.5 78.06, 103.03 33.48, 131.18 0.09 M29.23 123.46 C58.79 94.69, 85.12 63.88, 136.83 -0.31 M29.23 123.46 C69.39 77.38, 110.6 29.22, 136.83 -0.31 M33.57 124.58 C68.54 82.57, 102.72 40.4, 141.81 0.05 M33.57 124.58 C61.05 90.85, 88.75 60.08, 141.81 0.05 M38.55 124.94 C61.94 98.86, 82.73 75.37, 147.46 -0.34 M38.55 124.94 C63.22 98.08, 86.45 70.67, 147.46 -0.34 M44.2 124.54 C74.79 92.83, 103.93 57.79, 152.44 0.02 M44.2 124.54 C69.51 94.06, 95.85 65.66, 152.44 0.02 M49.18 124.9 C75.42 97.26, 99.31 67.74, 157.43 0.38 M49.18 124.9 C70.3 99.28, 93.06 72.81, 157.43 0.38 M54.83 124.51 C82.47 94.36, 111.15 62.15, 163.07 -0.02 M54.83 124.51 C97.13 76.13, 138.84 28.52, 163.07 -0.02 M59.81 124.87 C101.49 78.25, 139.94 31.09, 168.06 0.34 M59.81 124.87 C83.88 95.64, 109.19 65.79, 168.06 0.34 M65.46 124.48 C86.99 98.71, 109.3 74.5, 173.71 -0.05 M65.46 124.48 C93.47 93.69, 120.94 62.07, 173.71 -0.05 M70.44 124.84 C109.82 81.52, 149.51 36.05, 178.69 0.31 M70.44 124.84 C112.66 76.25, 151.9 30.35, 178.69 0.31 M76.09 124.44 C119.09 75.55, 159.53 27.22, 184.34 -0.09 M76.09 124.44 C106.1 88.95, 136.79 55.43, 184.34 -0.09 M81.07 124.8 C118.64 80.85, 157.33 36, 189.32 0.27 M81.07 124.8 C116.06 86.1, 149.76 46.99, 189.32 0.27 M86.72 124.41 C107.99 99.6, 132.47 72.45, 194.97 -0.12 M86.72 124.41 C108.89 97.65, 133.52 70.56, 194.97 -0.12 M91.7 124.77 C133.61 77.52, 174.96 31.3, 199.95 0.24 M91.7 124.77 C122.76 87.59, 155.55 51.03, 199.95 0.24 M97.35 124.37 C129.29 87.77, 156.64 54.1, 205.6 -0.16 M97.35 124.37 C127.91 89.58, 158.6 53.39, 205.6 -0.16 M102.33 124.73 C140.88 81.41, 177.15 38.46, 210.58 0.2 M102.33 124.73 C141.65 78.24, 180.57 32.02, 210.58 0.2 M107.98 124.34 C147.55 82.33, 184.51 40.17, 216.23 -0.19 M107.98 124.34 C130.73 96.49, 152.83 70.25, 216.23 -0.19 M112.96 124.7 C156.33 76.09, 198.54 29.36, 221.21 0.17 M112.96 124.7 C154.26 78.76, 195.17 31.74, 221.21 0.17 M118.61 124.3 C150.51 88.29, 182.99 51.53, 226.86 -0.22 M118.61 124.3 C141.6 98.71, 163.82 73.92, 226.86 -0.22 M123.59 124.66 C159.63 82.67, 198.66 37.84, 231.84 0.14 M123.59 124.66 C161.17 80.87, 200.28 38.28, 231.84 0.14 M128.58 125.02 C152.06 97.92, 176.54 70.28, 237.49 -0.26 M128.58 125.02 C166.13 79.17, 205.93 36.16, 237.49 -0.26 M134.22 124.63 C159.28 92.26, 187.9 61.44, 242.47 0.1 M134.22 124.63 C169.74 84.4, 203.67 43.95, 242.47 0.1 M139.21 124.99 C172.91 82.5, 207.31 44.14, 248.12 -0.29 M139.21 124.99 C169.09 92.03, 197.77 57.27, 248.12 -0.29 M144.85 124.59 C173.29 93.52, 198.66 61.85, 253.1 0.07 M144.85 124.59 C174.21 87.91, 205.96 54.02, 253.1 0.07 M149.84 124.95 C192.28 74.87, 234.57 26.92, 258.75 -0.33 M149.84 124.95 C173.98 97.57, 197.3 69.66, 258.75 -0.33 M155.48 124.56 C191.24 80.96, 229.18 38.66, 262.42 1.54 M155.48 124.56 C183.79 93.95, 210.37 62.26, 262.42 1.54 M160.47 124.92 C202.15 76.53, 240.49 32.48, 266.75 2.66 M160.47 124.92 C202.01 77.51, 242.13 31.25, 266.75 2.66 M166.11 124.52 C205.57 81.4, 240.21 34.28, 271.74 3.02 M166.11 124.52 C186.86 98.6, 210.07 73.26, 271.74 3.02 M171.1 124.88 C209.33 79.52, 247.92 36.43, 276.07 4.13 M171.1 124.88 C192.93 97.84, 217.3 70.42, 276.07 4.13 M176.74 124.49 C201.08 97.74, 221.25 69.91, 279.74 6 M176.74 124.49 C211.58 82.85, 248.03 41.65, 279.74 6 M181.73 124.85 C208.86 94.11, 233.89 66.87, 283.42 7.87 M181.73 124.85 C212.05 90.18, 242.57 56.93, 283.42 7.87 M187.37 124.46 C215.98 91.6, 244.79 56.61, 285.78 11.25 M187.37 124.46 C210.99 97.41, 236.08 69.24, 285.78 11.25 M192.36 124.82 C215.47 99.06, 235.76 73.89, 288.8 13.87 M192.36 124.82 C215.86 100.08, 239.04 72.49, 288.8 13.87 M198 124.42 C234.52 81.83, 270.53 42.19, 290.51 18.01 M198 124.42 C223.34 95.57, 246.28 69.1, 290.51 18.01 M202.99 124.78 C229.32 96.48, 255.54 67.8, 290.9 23.65 M202.99 124.78 C237.57 85.31, 272.24 45.04, 290.9 23.65 M208.63 124.39 C224.87 103.61, 242.5 83.71, 290.64 30.05 M208.63 124.39 C236.97 92.93, 264.97 59.13, 290.64 30.05 M213.62 124.75 C241.38 92.75, 268.85 56.84, 291.04 35.69 M213.62 124.75 C242.35 91.19, 272.04 57.69, 291.04 35.69 M219.26 124.35 C237.73 98.87, 258.95 77.69, 290.77 42.09 M219.26 124.35 C237.38 103.04, 256.39 82.31, 290.77 42.09 M224.25 124.71 C248.04 98.43, 274.51 67.67, 291.17 47.73 M224.25 124.71 C246.41 100.07, 268.68 76.01, 291.17 47.73 M229.89 124.32 C246.25 108.22, 260.93 91.17, 290.91 54.13 M229.89 124.32 C250.22 100.8, 269.47 79.58, 290.91 54.13 M234.88 124.68 C252.78 100.07, 273.18 78.28, 291.3 59.77 M234.88 124.68 C248.36 109.79, 260.22 95.32, 291.3 59.77 M239.87 125.04 C257.2 105.71, 271.25 89.02, 291.04 66.17 M239.87 125.04 C254.69 110.34, 266.93 93.57, 291.04 66.17 M245.51 124.64 C260.19 106.7, 276.28 92.16, 291.43 71.81 M245.51 124.64 C263.68 103.09, 281.66 81.88, 291.43 71.81 M250.5 125 C261.9 111.36, 269.9 102.46, 291.17 78.21 M250.5 125 C259.73 114.73, 268.75 104.38, 291.17 78.21 M256.14 124.61 C264.98 112.94, 276.94 103.14, 290.91 84.61 M256.14 124.61 C262.92 116.72, 269.22 108.5, 290.91 84.61 M262.44 123.46 C267.5 114.75, 276.32 108.79, 291.31 90.25 M262.44 123.46 C270.34 113.95, 279 103.69, 291.31 90.25 M268.08 123.06 C275.87 113.53, 286.18 104.41, 293.67 93.63 M268.08 123.06 C276.35 112.31, 284.4 102.51, 293.67 93.63 M275.04 121.16 C279.82 115.86, 283.55 114.4, 288.82 105.31 M275.04 121.16 C279.52 114.7, 285.21 109.92, 288.82 105.31" stroke="#ffc9c9" stroke-width="0.5" fill="none"></path><path d="M30.53 0 M30.53 0 C80.3 -0.6, 133.21 -0.66, 260.27 0 M30.53 0 C114.17 -1.38, 198.08 -1.42, 260.27 0 M260.27 0 C280.82 1.14, 291.21 11.56, 290.8 30.53 M260.27 0 C278.58 -2.02, 291.45 11.34, 290.8 30.53 M290.8 30.53 C292.33 49.63, 293 73.32, 290.8 91.58 M290.8 30.53 C290.11 48.57, 291.17 66.35, 290.8 91.58 M290.8 91.58 C289.82 113.69, 282.27 124.06, 260.27 122.1 M290.8 91.58 C291.71 109.85, 280.26 123.26, 260.27 122.1 M260.27 122.1 C170.57 124.44, 79.69 121.92, 30.53 122.1 M260.27 122.1 C191.45 124.22, 124.89 123.52, 30.53 122.1 M30.53 122.1 C9.36 123.03, -1.04 111.81, 0 91.58 M30.53 122.1 C11.05 120.81, 0.87 110.86, 0 91.58 M0 91.58 C0.6 67.62, -1.72 48.14, 0 30.53 M0 91.58 C-1.01 77.91, -0.15 62.94, 0 30.53 M0 30.53 C1.08 10.53, 9.93 -1.11, 30.53 0 M0 30.53 C-0.63 11.53, 12.36 0.44, 30.53 0" stroke="#1e1e1e" stroke-width="1" fill="none"></path></g><g transform="translate(361.6939595040385 587.074093989675) rotate(0 105.11812674372686 23.346356673254377)"><text x="0" y="0" font-family="Virgil, Segoe UI Emoji" font-size="37.35417067720687px" fill="#1e1e1e" text-anchor="start" style="white-space: pre;" direction="ltr" dominant-baseline="text-before-edge">Admin Panel</text></g><g stroke-linecap="round" transform="translate(797.1153025494605 389.096383613954) rotate(0 145.400105216655 61.05197788102623)"><path d="M4.41 11.79 C4.41 11.79, 4.41 11.79, 4.41 11.79 M4.41 11.79 C4.41 11.79, 4.41 11.79, 4.41 11.79 M0.87 21.96 C5.37 19.5, 9.11 13.68, 14.65 6.11 M0.87 21.96 C4.27 17.29, 7.8 15.13, 14.65 6.11 M3.23 25.34 C9.46 19.93, 13.44 13.33, 24.23 1.19 M3.23 25.34 C7.14 20.58, 12.21 14.46, 24.23 1.19 M2.97 31.73 C9.67 25.26, 17.55 16.99, 30.53 0.04 M2.97 31.73 C14.03 19.63, 24.51 7.94, 30.53 0.04 M2.71 38.13 C16.27 23.16, 26.71 8.23, 36.17 -0.36 M2.71 38.13 C9.77 29.23, 17.82 19.23, 36.17 -0.36 M3.11 43.77 C10.98 35.05, 18.86 27.43, 41.16 0 M3.11 43.77 C13.27 33.1, 23.1 21.77, 41.16 0 M2.84 50.17 C18.75 32.98, 35.29 14.14, 46.14 0.36 M2.84 50.17 C20.26 30.17, 34.97 12.49, 46.14 0.36 M3.24 55.82 C22.92 33.44, 40.65 11.24, 51.79 -0.03 M3.24 55.82 C16.46 39.48, 30.3 25.34, 51.79 -0.03 M2.98 62.21 C21.11 40.28, 40.91 17.17, 56.77 0.33 M2.98 62.21 C20.71 43.17, 37.44 23.58, 56.77 0.33 M2.72 68.61 C14.17 55.6, 28.43 40.21, 62.42 -0.07 M2.72 68.61 C14.63 54.1, 28.66 39.2, 62.42 -0.07 M3.11 74.25 C28.2 46.16, 52.89 19.11, 67.4 0.29 M3.11 74.25 C21.19 52, 41.15 30.19, 67.4 0.29 M2.85 80.65 C24.04 56.4, 40.62 35.11, 73.05 -0.1 M2.85 80.65 C22.66 58.2, 42.36 34.65, 73.05 -0.1 M3.24 86.3 C29.95 56.28, 54.71 26.58, 78.03 0.26 M3.24 86.3 C30.37 54.17, 57.02 22.07, 78.03 0.26 M2.98 92.69 C32.82 61.51, 60.29 30.27, 83.68 -0.14 M2.98 92.69 C20.05 71.82, 36.27 52.34, 83.68 -0.14 M2.06 99.85 C37.01 60.87, 70.7 23.96, 88.66 0.22 M2.06 99.85 C35.2 63.27, 67.93 25.66, 88.66 0.22 M2.46 105.49 C29.51 75.06, 57.05 43.98, 94.31 -0.17 M2.46 105.49 C21.98 83.81, 40.88 62.83, 94.31 -0.17 M4.82 108.87 C36.09 72.34, 70.44 32.89, 99.29 0.19 M4.82 108.87 C37.6 70.57, 71.82 33.6, 99.29 0.19 M6.53 113 C27.68 88.53, 49.87 63.52, 104.94 -0.21 M6.53 113 C40.37 71.49, 76.41 32.79, 104.94 -0.21 M9.55 115.63 C32.69 85.51, 59.35 56.95, 109.92 0.15 M9.55 115.63 C42.53 78.36, 73.95 40.8, 109.92 0.15 M12.57 118.25 C44.42 77.97, 76.93 41.79, 115.57 -0.24 M12.57 118.25 C40.82 87.09, 67.91 54.15, 115.57 -0.24 M16.24 120.12 C43.66 90.19, 68.03 59.68, 120.55 0.12 M16.24 120.12 C44.5 84.74, 75.13 52.14, 120.55 0.12 M19.92 121.99 C61.31 73.07, 102.58 26.3, 126.2 -0.27 M19.92 121.99 C43.47 95.26, 66.21 68.02, 126.2 -0.27 M24.25 123.1 C60.01 79.51, 97.95 37.21, 131.18 0.09 M24.25 123.1 C52.55 92.5, 79.13 60.8, 131.18 0.09 M29.23 123.46 C71.41 74.5, 110.25 29.88, 136.83 -0.31 M29.23 123.46 C71.28 75.47, 111.9 28.63, 136.83 -0.31 M33.57 124.58 C73.95 80.33, 109.56 32.12, 141.81 0.05 M33.57 124.58 C54.85 98.03, 78.61 72.06, 141.81 0.05 M38.55 124.94 C78.23 77.88, 118.3 33.1, 147.46 -0.34 M38.55 124.94 C61.23 96.85, 86.49 68.43, 147.46 -0.34 M44.2 124.54 C69.69 96.46, 91.04 67.27, 152.44 0.02 M44.2 124.54 C80.84 80.79, 119.13 37.47, 152.44 0.02 M49.18 124.9 C77.94 92.26, 104.63 63.1, 157.43 0.38 M49.18 124.9 C81.47 88.03, 113.9 52.57, 157.43 0.38 M54.83 124.51 C86.37 88.31, 118.05 50.02, 163.07 -0.02 M54.83 124.51 C80.82 94.66, 108.33 63.71, 163.07 -0.02 M59.81 124.87 C85.64 95.99, 108.65 67.69, 168.06 0.34 M59.81 124.87 C86.11 97.02, 112.1 66.2, 168.06 0.34 M65.46 124.48 C108.13 74.76, 150.28 28.06, 173.71 -0.05 M65.46 124.48 C95 90.86, 122.01 59.71, 173.71 -0.05 M70.44 124.84 C102.86 89.7, 134.94 54.28, 178.69 0.31 M70.44 124.84 C113.12 76.3, 155.76 26.86, 178.69 0.31 M76.09 124.44 C98.07 97.52, 121.16 71.35, 184.34 -0.09 M76.09 124.44 C113.63 82.69, 150.71 38.45, 184.34 -0.09 M81.07 124.8 C119.95 79.49, 158.74 30.56, 189.32 0.27 M81.07 124.8 C121.41 77.72, 162.91 30.64, 189.32 0.27 M86.72 124.41 C115.52 86.72, 147.34 53.34, 194.97 -0.12 M86.72 124.41 C114.13 92.09, 142.46 60.65, 194.97 -0.12 M91.7 124.77 C130.73 81.24, 172.35 33.04, 199.95 0.24 M91.7 124.77 C127.6 85.01, 163.36 45.42, 199.95 0.24 M97.35 124.37 C125.11 95.6, 150.99 65.67, 205.6 -0.16 M97.35 124.37 C132.71 83.08, 167.04 44.51, 205.6 -0.16 M102.33 124.73 C138.27 79.01, 176.6 36.6, 210.58 0.2 M102.33 124.73 C127.59 96.22, 151.39 68.01, 210.58 0.2 M107.98 124.34 C143.58 84.58, 175.76 47.05, 216.23 -0.19 M107.98 124.34 C138.48 92.28, 166.14 57.77, 216.23 -0.19 M112.96 124.7 C148.11 83.33, 184.37 45.58, 221.21 0.17 M112.96 124.7 C155.33 74.52, 197.77 25.17, 221.21 0.17 M118.61 124.3 C147.32 91.03, 172.4 62.49, 226.86 -0.22 M118.61 124.3 C143.67 96.3, 167.87 68.47, 226.86 -0.22 M123.59 124.66 C152.88 89.8, 185.24 56.53, 231.84 0.14 M123.59 124.66 C144.43 99.36, 165.49 74.15, 231.84 0.14 M128.58 125.02 C152.59 95.48, 179.44 68.77, 237.49 -0.26 M128.58 125.02 C159.9 89.18, 191.9 52.06, 237.49 -0.26 M134.22 124.63 C170.85 82.89, 209.67 40.96, 242.47 0.1 M134.22 124.63 C169.81 82.29, 205.58 40.61, 242.47 0.1 M139.21 124.99 C170.19 89.67, 200.3 57.86, 248.12 -0.29 M139.21 124.99 C179.41 77.61, 220.32 32.32, 248.12 -0.29 M144.85 124.59 C168.03 96.51, 194.2 68.73, 253.1 0.07 M144.85 124.59 C184.92 77.88, 224.47 32.36, 253.1 0.07 M149.84 124.95 C184.27 84.12, 214.89 47.62, 258.75 -0.33 M149.84 124.95 C187.71 80.9, 224.92 37.3, 258.75 -0.33 M155.48 124.56 C194.09 77.42, 234.71 34.5, 262.42 1.54 M155.48 124.56 C194.43 81.44, 231.52 36.39, 262.42 1.54 M160.47 124.92 C189.38 90.06, 221.07 56.21, 266.75 2.66 M160.47 124.92 C195.11 87.55, 227.03 48.52, 266.75 2.66 M166.11 124.52 C209.02 76.37, 249.31 30.61, 271.74 3.02 M166.11 124.52 C192.04 95.5, 217.43 66.16, 271.74 3.02 M171.1 124.88 C193.73 98.39, 216.97 69.6, 276.07 4.13 M171.1 124.88 C206.3 85.83, 240.37 45.15, 276.07 4.13 M176.74 124.49 C204.52 92.11, 232.53 58.89, 279.74 6 M176.74 124.49 C206.62 91, 236.84 56.27, 279.74 6 M181.73 124.85 C219.89 79.46, 261.41 31.14, 283.42 7.87 M181.73 124.85 C207.8 93.22, 235.04 62.66, 283.42 7.87 M187.37 124.46 C222.41 83.74, 256 44.91, 285.78 11.25 M187.37 124.46 C207.35 101.47, 228.54 78.14, 285.78 11.25 M192.36 124.82 C225.29 86.41, 258.3 48.24, 288.8 13.87 M192.36 124.82 C227.93 85.08, 263.01 44.15, 288.8 13.87 M198 124.42 C223.61 92.01, 250.97 61.24, 290.51 18.01 M198 124.42 C220.71 98.94, 242.3 74.32, 290.51 18.01 M202.99 124.78 C227.72 94.72, 254.79 69.34, 290.9 23.65 M202.99 124.78 C228.36 95.77, 251.59 68.96, 290.9 23.65 M208.63 124.39 C241.46 84.87, 272.66 48.11, 290.64 30.05 M208.63 124.39 C230.29 98.11, 253.07 72.94, 290.64 30.05 M213.62 124.75 C233.44 101.25, 253.44 79.63, 291.04 35.69 M213.62 124.75 C231.79 102.74, 249.33 82.33, 291.04 35.69 M219.26 124.35 C235.62 105.54, 251.61 83.91, 290.77 42.09 M219.26 124.35 C243.96 96.76, 268 67.64, 290.77 42.09 M224.25 124.71 C248.89 95.96, 272.41 65.69, 291.17 47.73 M224.25 124.71 C240.71 104.6, 258.71 83.98, 291.17 47.73 M229.89 124.32 C253.79 95.45, 277.64 71.03, 290.91 54.13 M229.89 124.32 C250.4 101.79, 270.25 79.17, 290.91 54.13 M234.88 124.68 C246.95 112.12, 262.23 97, 291.3 59.77 M234.88 124.68 C256.07 100.86, 277.42 76.16, 291.3 59.77 M239.87 125.04 C250.77 114.15, 263.14 99.49, 291.04 66.17 M239.87 125.04 C250.78 112.3, 261.61 100.94, 291.04 66.17 M245.51 124.64 C257.4 113.75, 269.57 97.86, 291.43 71.81 M245.51 124.64 C262.34 103.75, 279.41 84.62, 291.43 71.81 M250.5 125 C266.6 105.92, 281.93 91.53, 291.17 78.21 M250.5 125 C260.01 111.83, 272.49 100.17, 291.17 78.21 M256.14 124.61 C269.37 111.02, 276.8 100.1, 290.91 84.61 M256.14 124.61 C264.52 113.66, 274.87 103.32, 290.91 84.61 M262.44 123.46 C273.39 114.85, 279.91 103.08, 291.31 90.25 M262.44 123.46 C270.89 114.09, 277.47 105.93, 291.31 90.25 M268.08 123.06 C271.52 115.54, 277.69 108.79, 293.67 93.63 M268.08 123.06 C274.7 115.17, 279.9 108.75, 293.67 93.63 M275.04 121.16 C279.31 115.91, 282.99 111.33, 288.82 105.31 M275.04 121.16 C278.5 117.54, 283.54 111.69, 288.82 105.31" stroke="#ffc9c9" stroke-width="0.5" fill="none"></path><path d="M30.53 0 M30.53 0 C103.68 2.45, 178.61 -0.35, 260.27 0 M30.53 0 C90.22 -0.38, 150.01 -0.09, 260.27 0 M260.27 0 C282.22 -0.47, 292.79 10.45, 290.8 30.53 M260.27 0 C281.72 2.12, 289.25 8.57, 290.8 30.53 M290.8 30.53 C290.03 44.69, 291.23 56.09, 290.8 91.58 M290.8 30.53 C289.95 49.5, 289.51 70.29, 290.8 91.58 M290.8 91.58 C290.57 110.53, 279.85 122.9, 260.27 122.1 M290.8 91.58 C288.96 112.42, 282.82 120.95, 260.27 122.1 M260.27 122.1 C201.93 123.92, 146.05 124.86, 30.53 122.1 M260.27 122.1 C188.3 122.22, 117.18 123.76, 30.53 122.1 M30.53 122.1 C8.67 121.74, -0.68 110.25, 0 91.58 M30.53 122.1 C11.32 122.4, 1.38 111.29, 0 91.58 M0 91.58 C-0.84 74.69, 1.14 54.66, 0 30.53 M0 91.58 C0.33 70.54, -0.99 50.6, 0 30.53 M0 30.53 C1.18 11.43, 10.02 0.37, 30.53 0 M0 30.53 C-0.76 11.19, 9.08 -1.53, 30.53 0" stroke="#1e1e1e" stroke-width="1" fill="none"></path></g><g transform="translate(854.6527751248359 429.2621585356824) rotate(0 91.9426743724689 23.346356673254377)"><text x="0" y="0" font-family="Virgil, Segoe UI Emoji" font-size="37.35417067720687px" fill="#1e1e1e" text-anchor="start" style="white-space: pre;" direction="ltr" dominant-baseline="text-before-edge">C2 Server</text></g><g stroke-linecap="round"><g transform="translate(81.51240430851612 349.8457813968321) rotate(0 -15.683393267393512 9.196530777349835)" fill-rule="evenodd"><path d="M-28.54 -3.61 C-28.54 -3.61, -28.54 -3.61, -28.54 -3.61 M-28.54 -3.61 C-28.54 -3.61, -28.54 -3.61, -28.54 -3.61 M-27.46 18.87 C-21.9 14.08, -15.41 6.52, -10.64 -1.71 M-27.57 20.38 C-20.12 10.84, -12.66 4.06, -8.91 -2.3 M-8.13 22.95 C-4.84 19.68, -1.95 14.79, 4.29 8.09 M-9.17 24.34 C-4.47 16.89, 1.08 11.39, 4.01 7.04" stroke="#ced4da" stroke-width="2" fill="none"></path><path d="M0.83 -0.99 C1.28 0.05, 3.39 3.24, 3.82 5.42 C4.26 7.6, 4.68 9.89, 3.44 12.09 C2.19 14.29, -1.49 16.74, -3.63 18.62 C-5.77 20.49, -6.78 22.65, -9.39 23.35 C-12.01 24.05, -16.13 23.36, -19.33 22.84 C-22.52 22.32, -26.36 21.66, -28.55 20.21 C-30.74 18.77, -31.27 16.62, -32.45 14.18 C-33.63 11.74, -35.67 7.99, -35.62 5.6 C-35.58 3.2, -33.91 1.25, -32.19 -0.19 C-30.48 -1.62, -30.85 -2.9, -25.35 -3.02 C-19.84 -3.14, -3.55 -1.26, 0.84 -0.91 M-0.19 1.1 C0.09 2.43, 2.95 5.05, 3.48 7.04 C4.02 9.03, 4.26 10.98, 3.03 13.05 C1.8 15.13, -1.65 17.73, -3.89 19.5 C-6.13 21.27, -8.01 23.29, -10.41 23.69 C-12.8 24.08, -15.28 22.66, -18.25 21.87 C-21.21 21.09, -25.77 20.29, -28.21 18.96 C-30.66 17.64, -31.89 15.81, -32.89 13.92 C-33.89 12.03, -34.34 10.07, -34.2 7.61 C-34.05 5.16, -33.62 1.34, -32.03 -0.82 C-30.44 -2.98, -29.98 -5.19, -24.66 -5.35 C-19.35 -5.52, -4.53 -2.95, -0.13 -1.82" stroke="#e03131" stroke-width="4" fill="none"></path></g></g><mask></mask><g stroke-linecap="round"><g transform="translate(53.529429422438625 360.40350813923624) rotate(0 12.14012383836689 1.9207865302194023)"><path d="M1.15 0.16 C3.03 0.9, 8.66 3.52, 12.07 3.45 C15.48 3.38, 19.7 0.3, 21.59 -0.26 M0.3 -0.8 C2 0.17, 7.53 4.36, 11.48 4.63 C15.43 4.9, 21.87 1.42, 23.98 0.84" stroke="#e03131" stroke-width="4" fill="none"></path></g></g><mask></mask><g stroke-linecap="round"><g transform="translate(57.5291085355766 356.03308419445784) rotate(0 1.8829023476737348 -0.18429413666945038)" fill-rule="evenodd"><path d="M0 0 C0 0, 0 0, 0 0 M0 0 C0 0, 0 0, 0 0" stroke="#ced4da" stroke-width="2" fill="none"></path><path d="M0.68 -0.68 C0.68 -1.03, 0.58 -2.05, 1.16 -1.94 C1.75 -1.83, 3.93 -0.37, 4.19 -0.01 M-0.42 1.58 C-0.15 1.38, 2.65 -0.57, 3.37 -0.62 C4.09 -0.68, 4.01 0.92, 3.88 1.25" stroke="#e03131" stroke-width="4" fill="none"></path></g></g><mask></mask><g stroke-linecap="round"><g transform="translate(68.14675580250332 356.0927466202411) rotate(0 1.1247194624838812 -0.029424184461731784)" fill-rule="evenodd"><path d="M0 0 C0 0, 0 0, 0 0 M0 0 C0 0, 0 0, 0 0" stroke="#ced4da" stroke-width="2" fill="none"></path><path d="M-0.96 -0.42 C-0.57 -0.57, 2.39 -1.74, 2.99 -1.63 C3.6 -1.52, 2.73 -0.08, 2.68 0.23 M0.74 -1.68 C0.98 -1.58, 2.36 -0.7, 2.51 -0.15 C2.65 0.4, 1.56 1.35, 1.59 1.62" stroke="#e03131" stroke-width="4" fill="none"></path></g></g><mask></mask><g stroke-linecap="round"><g transform="translate(59.64439563403903 381.5765734421234) rotate(0 -23.439123227621167 6.65277032017093)"><path d="M0.87 -0.11 C-3.08 0.93, -16.78 3.59, -24.71 5.79 C-32.63 7.99, -43.3 11.89, -46.68 13.1 M-0.13 -1.21 C-3.6 0.08, -14.39 4.78, -22.33 7.4 C-30.26 10.02, -43.5 13.37, -47.75 14.51" stroke="#e03131" stroke-width="4" fill="none"></path></g></g><mask></mask><g stroke-linecap="round"><g transform="translate(67.97603434187295 380.43001399712557) rotate(0 24.050490066545535 6.550006416900715)"><path d="M-0.63 0.14 C3.18 0.95, 15.49 2.7, 23.72 4.77 C31.95 6.83, 44.92 11.35, 48.73 12.54 M1.24 -0.84 C5.37 0.2, 18.24 3.94, 26.12 6.4 C34.01 8.86, 45.19 12.88, 48.55 13.94" stroke="#e03131" stroke-width="4" fill="none"></path></g></g><mask></mask><g stroke-linecap="round"><g transform="translate(64.91854948656692 385.4748601594679) rotate(0 -0.1056371104768914 32.22812365448635)"><path d="M-0.59 0.18 C-0.45 4.86, 0.35 17.54, 0.19 28.21 C0.04 38.87, -1.23 58.15, -1.53 64.17 M1.31 -0.77 C1.44 4.12, -0.09 18.83, -0.17 29.83 C-0.26 40.83, 1.11 59.32, 0.81 65.23" stroke="#e03131" stroke-width="4" fill="none"></path></g></g><mask></mask><g stroke-linecap="round"><g transform="translate(59.185769756632 455.49121400991316) rotate(0 -9.456694594976398 -0.09078274327316649)"><path d="M1.11 0.16 C-2.13 0.02, -16.49 -0.54, -20.02 -0.65 M0.23 -0.81 C-2.6 -0.8, -14.87 0.39, -17.87 0.63" stroke="#e03131" stroke-width="4" fill="none"></path></g></g><mask></mask><g stroke-linecap="round"><g transform="translate(67.36454017002143 455.2619028207155) rotate(0 9.811148080902967 -0.516650337144938)"><path d="M-1.07 -0.5 C1.84 -0.62, 15 -0.74, 18.58 -0.58 M0.57 -1.8 C3.74 -1.77, 17.45 0.73, 20.69 0.77" stroke="#e03131" stroke-width="4" fill="none"></path></g></g><mask></mask><g stroke-linecap="round"><g transform="translate(43.071560609923836 343.6479666671944) rotate(0 25.21512239545882 3.2392118326829404)"><path d="M-1.14 -0.35 C7.63 1.07, 42.76 6.92, 51.57 8.06 M0.46 -1.58 C9.23 -0.46, 42.5 4.8, 50.99 6.28" stroke="#e03131" stroke-width="4" fill="none"></path></g></g><mask></mask><g stroke-linecap="round"><g transform="translate(55.513072092611765 345.09563173423976) rotate(0 3.148859347799771 -13.24064912122094)"><path d="M0.7 0.65 C1.56 -1.21, 3.07 -6.92, 4.07 -11.55 C5.07 -16.18, 6.6 -24.79, 6.7 -27.13 M-0.4 -0.05 C0.49 -1.76, 2.42 -6.12, 3.56 -10.5 C4.71 -14.87, 6.33 -23.41, 6.45 -26.29" stroke="#e03131" stroke-width="4" fill="none"></path></g></g><mask></mask><g stroke-linecap="round"><g transform="translate(80.40376604517769 349.0857454683578) rotate(0 2.3368087018643564 -13.198806327834518)"><path d="M0.84 -0.91 C0.83 -3.45, 0.3 -10.48, 0.62 -14.59 C0.93 -18.71, 2.26 -23.82, 2.72 -25.6 M-0.18 1.22 C-0.32 -1.25, -0.68 -8.73, 0.19 -13.53 C1.06 -18.34, 4.52 -25.32, 5.05 -27.62" stroke="#e03131" stroke-width="4" fill="none"></path></g></g><mask></mask><g stroke-linecap="round"><g transform="translate(85.53388928785353 324.0050579039689) rotate(0 -12.855341877121646 -2.4784933127832574)"><path d="M1 -0.91 C-1.73 -1.42, -11.07 -3.52, -15.52 -3.94 C-19.97 -4.36, -24.25 -3.3, -25.71 -3.43 M0.06 1.22 C-2.38 0.45, -8.91 -4.65, -13.37 -5.74 C-17.84 -6.82, -25.02 -5.61, -26.71 -5.28" stroke="#e03131" stroke-width="4" fill="none"></path></g></g><mask></mask><g transform="translate(10 474.5825412390318) rotate(0 52.32822256988038 14.744195637875919)"><text x="0" y="0" font-family="Virgil, Segoe UI Emoji" font-size="23.590713020601452px" fill="#1e1e1e" text-anchor="start" style="white-space: pre;" direction="ltr" dominant-baseline="text-before-edge">Attacker</text></g><g stroke-linecap="round"><g transform="translate(64.22379614433157 502.6985836842414) rotate(0 124.04786717420575 59.959662749956124)"><path d="M0.31 0.18 C9.41 18.71, 12.71 92.16, 54.17 111.27 C95.63 130.38, 216.59 114.46, 249.08 114.83 M-0.99 -0.78 C7.99 17.42, 11.64 90.66, 53.19 109.57 C94.75 128.48, 215.64 111.93, 248.35 112.68" stroke="#1e1e1e" stroke-width="4" fill="none"></path></g><g transform="translate(64.22379614433157 502.6985836842414) rotate(0 124.04786717420575 59.959662749956124)"><path d="M221.03 124.32 C229.38 121.34, 235.91 118.31, 246.69 112.95 M220.64 125.27 C227.6 122.97, 232.74 119.52, 247.67 113.49" stroke="#1e1e1e" stroke-width="4" fill="none"></path></g><g transform="translate(64.22379614433157 502.6985836842414) rotate(0 124.04786717420575 59.959662749956124)"><path d="M219.95 103.83 C228.59 106.25, 235.41 108.64, 246.69 112.95 M219.56 104.78 C226.77 106.92, 232.14 107.89, 247.67 113.49" stroke="#1e1e1e" stroke-width="4" fill="none"></path></g></g><mask></mask><g stroke-linecap="round"><g transform="translate(615.4990569450474 610.1420315998635) rotate(0 155.62182897673847 -35.22063217378377)"><path d="M-1.17 -0.76 C34.63 1.15, 161.55 25.42, 213.81 11.17 C266.08 -3.08, 295.85 -69.88, 312.41 -86.28 M0.42 1.46 C36.22 3.6, 161.47 27.69, 213.35 12.77 C265.24 -2.15, 294.96 -71.58, 311.71 -88.06" stroke="#1e1e1e" stroke-width="4" fill="none"></path></g><g transform="translate(615.4990569450474 610.1420315998635) rotate(0 155.62182897673847 -35.22063217378377)"><path d="M302.34 -57.62 C305.66 -65.25, 309.03 -70.34, 311.87 -88.62 M303.34 -59.62 C306.23 -66.01, 307.96 -74.05, 310.94 -87.53" stroke="#1e1e1e" stroke-width="4" fill="none"></path></g><g transform="translate(615.4990569450474 610.1420315998635) rotate(0 155.62182897673847 -35.22063217378377)"><path d="M285.67 -69.59 C292.63 -74.42, 299.67 -76.88, 311.87 -88.62 M286.67 -71.58 C294 -74.89, 300.2 -79.71, 310.94 -87.53" stroke="#1e1e1e" stroke-width="4" fill="none"></path></g></g><mask></mask><g stroke-linecap="round" transform="translate(1319.2463299527826 366.51954505571257) rotate(0 22.946008805023666 17.613808139367165)"><path d="M1.41 11.83 C1.41 11.83, 1.41 11.83, 1.41 11.83 M1.41 11.83 C1.41 11.83, 1.41 11.83, 1.41 11.83 M7.74 30.06 C12.9 22.39, 20.19 14.95, 29.56 3.19 M8.11 29.03 C15.81 19.22, 21.54 11.7, 31.37 2.84 M19.69 38.48 C28.02 31.03, 32.32 22.98, 45.82 11.78 M19.98 40.44 C27.94 30.58, 35.56 20.18, 44.43 10.27" stroke="#ced4da" stroke-width="2" fill="none"></path><path d="M27.56 -0.55 C32.32 0, 37.73 3.94, 40.86 7.03 C43.99 10.12, 46.38 14.38, 46.33 17.98 C46.27 21.58, 43.62 25.91, 40.53 28.62 C37.45 31.33, 32.68 33.72, 27.82 34.26 C22.97 34.81, 15.77 33.82, 11.42 31.9 C7.07 29.98, 3.42 26.06, 1.72 22.75 C0.03 19.43, -0.41 15.46, 1.24 12.02 C2.89 8.58, 7.36 4.07, 11.62 2.13 C15.87 0.19, 24.02 0.71, 26.76 0.39 C29.5 0.07, 27.85 0.02, 28.07 0.2 M31.21 -0.31 C35.68 0.64, 40.84 5.36, 43.4 8.77 C45.96 12.18, 47.35 16.62, 46.57 20.14 C45.79 23.66, 42.73 27.54, 38.73 29.89 C34.73 32.23, 27.58 33.83, 22.58 34.21 C17.58 34.6, 12.36 34.62, 8.72 32.18 C5.08 29.74, 1.72 23.36, 0.72 19.57 C-0.27 15.78, 0.35 12.4, 2.75 9.44 C5.14 6.47, 10.45 2.96, 15.08 1.77 C19.71 0.59, 27.88 2.54, 30.52 2.33 C33.17 2.12, 31.15 0.35, 30.96 0.54" stroke="#1864ab" stroke-width="4" fill="none"></path></g><g stroke-linecap="round"><g transform="translate(1327.33541925407 387.14975012775085) rotate(0 8.97067159353901 2.2040208034309217)"><path d="M0.41 -0.33 C1.1 0.86, 2.49 5.61, 5.15 5.93 C7.81 6.26, 14.2 2.32, 16.39 1.61 M-0.83 -1.54 C-0.41 -0.59, 0.82 4.07, 4.08 4.25 C7.35 4.42, 16.28 0.32, 18.77 -0.49" stroke="#1864ab" stroke-width="4" fill="none"></path></g></g><mask></mask><g stroke-linecap="round"><g transform="translate(1328.5033729468305 379.333553269963) rotate(0 1.5710187132490319 -1.2387538629288883)" fill-rule="evenodd"><path d="M0 0 C0 0, 0 0, 0 0 M0 0 C0 0, 0 0, 0 0" stroke="#ced4da" stroke-width="2" fill="none"></path><path d="M-0.23 0.83 C-0.03 0.65, 0.74 -1.36, 1.6 -1.39 C2.46 -1.42, 4.46 0.4, 4.95 0.64 M-1.81 0.22 C-1.28 -0.29, 2.72 -3, 3.8 -3.27 C4.88 -3.55, 4.47 -2.17, 4.67 -1.43" stroke="#1864ab" stroke-width="4" fill="none"></path></g></g><mask></mask><g stroke-linecap="round"><g transform="translate(1341.374320138717 379.40587738398654) rotate(0 1.7719856850635551 -0.9078179085036027)" fill-rule="evenodd"><path d="M0 0 C0 0, 0 0, 0 0 M0 0 C0 0, 0 0, 0 0" stroke="#ced4da" stroke-width="2" fill="none"></path><path d="M-0.97 0.46 C-0.35 0.1, 2.59 -1.26, 3.5 -1.32 C4.42 -1.39, 4.49 -0.32, 4.51 0.08 M0.72 -0.35 C1.29 -1.14, 2.5 -3.46, 3.05 -3.17 C3.6 -2.88, 3.89 1, 4.01 1.38" stroke="#1864ab" stroke-width="4" fill="none"></path></g></g><mask></mask><g stroke-linecap="round"><g transform="translate(1334.7481167388378 410.6853637628783) rotate(0 -13.990331737130873 13.88594763363767)"><path d="M0.93 0.52 C-2.76 5.03, -18.29 27.5, -23.11 27.5 C-27.93 27.51, -27.08 5.25, -27.97 0.57 M-0.04 -0.25 C-3.75 4.42, -18.98 29.19, -23.79 29.02 C-28.61 28.86, -28.1 3.51, -28.91 -1.25" stroke="#1864ab" stroke-width="4" fill="none"></path></g></g><mask></mask><g stroke-linecap="round"><g transform="translate(1344.847913721589 409.2954790080048) rotate(0 9.958788050549629 20.150134708994756)"><path d="M0.5 -0.04 C3.78 3.21, 19.95 13.32, 20.6 20.02 C21.24 26.71, 7.14 36.71, 4.37 40.15 M-0.7 -1.1 C2.31 1.78, 18.22 11.33, 19.47 18.42 C20.73 25.5, 9.47 37.47, 6.83 41.4" stroke="#1864ab" stroke-width="4" fill="none"></path></g></g><mask></mask><g stroke-linecap="round"><g transform="translate(1341.1415628584164 415.41095326650293) rotate(0 -0.1620305922051557 39.62108890146851)"><path d="M-0.33 1 C-0.74 6.65, -1.7 20.91, -1.94 33.87 C-2.18 46.83, -1.79 71.37, -1.75 78.77 M1.69 0.47 C1.62 6.32, 0.53 22.64, 0.34 35.34 C0.14 48.03, 0.91 69.3, 0.52 76.63" stroke="#1864ab" stroke-width="4" fill="none"></path></g></g><mask></mask><g stroke-linecap="round"><g transform="translate(1334.192160291941 500.28632822689906) rotate(0 -11.616916340307398 -0.8505637782768645)"><path d="M-0.83 -0.14 C-4.8 -0.27, -20.29 0.23, -24.17 0.19 M0.94 -1.25 C-2.66 -1.85, -18.3 -2.09, -22.09 -1.73" stroke="#1864ab" stroke-width="4" fill="none"></path></g></g><mask></mask><g stroke-linecap="round"><g transform="translate(1344.1066469422167 500.00835212424045) rotate(0 11.85423130548861 0.2858897717401305)"><path d="M-1.19 0.38 C2.74 0.33, 18.52 -0.35, 22.78 -0.42 M0.38 -0.47 C4.74 -0.31, 20.99 0.73, 24.9 1.04" stroke="#1864ab" stroke-width="4" fill="none"></path></g></g><mask></mask><g stroke-linecap="round"><g transform="translate(1420.7510290590362 411.0021869432285) rotate(0 -14.325311702139516 11.937116953131863)"><path d="M0.91 -0.21 C-3.72 0.69, -28.58 2.17, -28.65 6.28 C-28.73 10.39, -4.26 21.46, 0.46 24.47 M-0.07 -1.37 C-4.78 -0.38, -29.62 3.14, -29.56 7.57 C-29.51 12.01, -4.66 22.37, 0.27 25.24" stroke="#1864ab" stroke-width="4" fill="none"></path></g></g><mask></mask><g stroke-linecap="round" transform="translate(1405.5928307135255 367.5870775397839) rotate(0 22.582370496498697 17.334672214121838)"><path d="M3.93 7.39 C3.93 7.39, 3.93 7.39, 3.93 7.39 M3.93 7.39 C3.93 7.39, 3.93 7.39, 3.93 7.39 M7.81 25.99 C14.69 21.46, 19.77 14.94, 26.5 6.88 M10.16 26.28 C15.72 17.67, 21.65 11.89, 24.92 6.37 M22.69 34.75 C28.82 30.09, 32.69 22.31, 43.91 10.75 M20.74 36.7 C25.59 30.15, 31.45 24.76, 43.73 11.54" stroke="#ced4da" stroke-width="2" fill="none"></path><path d="M31.58 2.14 C35.9 3.52, 40.68 7.32, 42.84 10.74 C44.99 14.15, 45.87 18.97, 44.5 22.64 C43.14 26.3, 38.65 30.58, 34.67 32.73 C30.69 34.88, 25.22 36.23, 20.61 35.55 C16 34.87, 10.47 31.66, 7.01 28.65 C3.55 25.65, 0.41 21.01, -0.14 17.51 C-0.69 14.01, 0.77 10.48, 3.7 7.66 C6.62 4.84, 12.12 1.3, 17.41 0.58 C22.69 -0.13, 32.2 2.66, 35.41 3.37 C38.61 4.08, 37.1 4.78, 36.63 4.85 M16.83 1.71 C21.04 0.66, 27.69 0.67, 32.26 1.98 C36.84 3.28, 42.21 6.32, 44.27 9.53 C46.33 12.74, 46.27 17.82, 44.64 21.25 C43.01 24.68, 38.25 27.97, 34.47 30.12 C30.69 32.26, 26.47 34.44, 21.94 34.13 C17.42 33.82, 10.79 30.53, 7.31 28.25 C3.84 25.98, 1.5 23.76, 1.1 20.48 C0.7 17.2, 2.36 11.64, 4.9 8.55 C7.45 5.46, 14.41 3.44, 16.38 1.96 C18.35 0.49, 16.39 -0.36, 16.73 -0.28" stroke="#1864ab" stroke-width="4" fill="none"></path></g><g stroke-linecap="round"><g transform="translate(1425.891637260138 391.12807298368034) rotate(0 8.188456010532718 -2.3699215676713266)"><path d="M1.1 -1.03 C2.73 -1.11, 7.33 -0.17, 9.85 -0.96 C12.36 -1.76, 15.1 -5.12, 16.16 -5.79 M0.22 1.04 C1.71 1.1, 6.47 0.92, 9.04 -0.05 C11.61 -1.01, 14.34 -4.11, 15.62 -4.73" stroke="#1864ab" stroke-width="4" fill="none"></path></g></g><mask></mask><g stroke-linecap="round"><g transform="translate(1430.788691783615 409.63432847386684) rotate(0 8.527518461531145 -3.7324444555315495)"><path d="M0.27 -1.19 C3.08 0.19, 16.61 9.78, 17.96 7.23 C19.32 4.68, 9.99 -12.38, 8.42 -16.47 M-1.04 0.81 C1.55 2.43, 15.75 11.15, 17.24 8.51 C18.73 5.88, 9.26 -10.83, 7.89 -15" stroke="#1864ab" stroke-width="4" fill="none"></path></g></g><mask></mask><g stroke-linecap="round"><g transform="translate(1427.1410775473705 415.65288737187393) rotate(0 -0.45832292559225607 37.90995646826991)"><path d="M0.42 -0.49 C0.27 5.33, -0.56 20.91, -0.63 33.76 C-0.7 46.6, -0.21 69.26, 0 76.59 M-0.82 -1.8 C-1.11 3.75, -1.39 18.55, -1.33 31.78 C-1.27 45.02, -0.34 70.33, -0.47 77.62" stroke="#1864ab" stroke-width="4" fill="none"></path></g></g><mask></mask><g stroke-linecap="round"><g transform="translate(1420.3018060723625 499.1831945233853) rotate(0 -11.128940093230995 -0.10798864773619243)"><path d="M0.47 0.29 C-3.28 0.25, -18.42 -0.76, -22.06 -0.74 M-0.75 -0.61 C-4.64 -0.45, -19.25 0.68, -22.72 0.51" stroke="#1864ab" stroke-width="4" fill="none"></path></g></g><mask></mask><g stroke-linecap="round"><g transform="translate(1430.0591722758527 498.909623664385) rotate(0 12.045854361344027 0.12542639446610337)"><path d="M0.55 -0.56 C4.59 -0.55, 20.69 0.11, 24.71 0.3 M-0.62 1.77 C3.33 1.39, 20.19 -1.01, 24.39 -1.51" stroke="#1864ab" stroke-width="4" fill="none"></path></g></g><mask></mask><g stroke-linecap="round"><g transform="translate(1434.5644669210724 377.826414100517) rotate(0 2.9864794948807685 -0.7614152096532507)" fill-rule="evenodd"><path d="M0 0 C0 0, 0 0, 0 0 M0 0 C0 0, 0 0, 0 0" stroke="#ced4da" stroke-width="2" fill="none"></path><path d="M1.18 0.58 C1.71 0.51, 3.39 -0.82, 3.71 -0.94 C4.04 -1.05, 3.3 -0.15, 3.14 -0.11 M0.35 -0.16 C0.77 -0.51, 2.51 -2.81, 3.38 -2.6 C4.26 -2.39, 5.77 0.66, 5.61 1.09" stroke="#1864ab" stroke-width="4" fill="none"></path></g></g><mask></mask><g stroke-linecap="round"><g transform="translate(1427.0879048165625 378.58274843558365) rotate(0 2.7130955015509244 -0.5997961291100182)" fill-rule="evenodd"><path d="M0 0 C0 0, 0 0, 0 0 M0 0 C0 0, 0 0, 0 0" stroke="#ced4da" stroke-width="2" fill="none"></path><path d="M1.18 0.88 C1.27 0.44, 1.45 -1.78, 1.72 -2.04 C1.99 -2.3, 2.31 -1.09, 2.8 -0.69 M0.34 0.3 C0.71 -0.01, 3.22 -0.61, 4.01 -0.62 C4.8 -0.64, 4.88 -0.16, 5.08 0.2" stroke="#1864ab" stroke-width="4" fill="none"></path></g></g><mask></mask><g transform="translate(1336.4747167900623 528.8063373833643) rotate(0 50.9379023371057 14.560093409126239)"><text x="0" y="0" font-family="Virgil, Segoe UI Emoji" font-size="23.296149454602137px" fill="#1e1e1e" text-anchor="start" style="white-space: pre;" direction="ltr" dominant-baseline="text-before-edge">Creators</text></g><g stroke-linecap="round"><g transform="translate(1294.3006531222472 444.458210047736) rotate(0 -101.38356876160015 -1.1115957350800727)"><path d="M1.03 -0.14 C-32.67 -0.6, -169.1 -2.08, -203.19 -2.09 M0.11 -1.25 C-33.6 -1.66, -169.76 -0.97, -203.79 -1.12" stroke="#1e1e1e" stroke-width="4" fill="none"></path></g><g transform="translate(1294.3006531222472 444.458210047736) rotate(0 -101.38356876160015 -1.1115957350800727)"><path d="M-175.84 -10.31 C-183.38 -8.42, -186.26 -6.33, -202.37 0.79 M-175.8 -11.04 C-181.94 -8.77, -188.45 -6.9, -203.68 -0.35" stroke="#1e1e1e" stroke-width="4" fill="none"></path></g><g transform="translate(1294.3006531222472 444.458210047736) rotate(0 -101.38356876160015 -1.1115957350800727)"><path d="M-175.82 10.21 C-183.49 7.71, -186.36 5.41, -202.37 0.79 M-175.78 9.48 C-182.08 7.38, -188.59 4.86, -203.68 -0.35" stroke="#1e1e1e" stroke-width="4" fill="none"></path></g></g><mask></mask><g transform="translate(1142.6748527927248 408.30901261818053) rotate(0 51.92645813147465 11.547660289996657)"><text x="0" y="0" font-family="Virgil, Segoe UI Emoji" font-size="18.476256463994805px" fill="#1e1e1e" text-anchor="start" style="white-space: pre;" direction="ltr" dominant-baseline="text-before-edge">Full Control</text></g><g stroke-linecap="round" transform="translate(884.609748920624 34.76730584611232) rotate(0 164.17760499256292 81.33569421649895)"><path d="M7.86 8.16 C7.86 8.16, 7.86 8.16, 7.86 8.16 M7.86 8.16 C7.86 8.16, 7.86 8.16, 7.86 8.16 M8.78 31.49 C16.87 20.77, 23.59 12.51, 34.37 2.05 M8.78 31.49 C14.64 24.17, 22.1 16.79, 34.37 2.05 M8.39 56.32 C23.45 37.29, 40.77 21.35, 55.63 1.98 M8.39 56.32 C26.76 35.24, 43.28 15.78, 55.63 1.98 M8.66 80.4 C23.33 62.3, 40.63 46.24, 76.89 1.91 M8.66 80.4 C35.12 49.65, 62.17 19.15, 76.89 1.91 M8.93 104.49 C39.72 70.47, 68.25 36.26, 98.15 1.85 M8.93 104.49 C26.95 82.53, 45.9 62.7, 98.15 1.85 M0.66 138.38 C37.85 90.53, 79.56 47, 119.41 1.78 M0.66 138.38 C38.91 92.66, 79.62 46.65, 119.41 1.78 M8.8 153.4 C56.23 100.42, 102.88 48.18, 140.67 1.71 M8.8 153.4 C39.6 115.6, 71.1 79.64, 140.67 1.71 M20.22 164.66 C64.54 115.2, 109.04 66.97, 161.28 2.39 M20.22 164.66 C74.46 100.2, 130.73 37.94, 161.28 2.39 M38.2 168.36 C80.46 117.21, 125.33 70.54, 182.54 2.32 M38.2 168.36 C73 131.48, 106.2 93.44, 182.54 2.32 M59.46 168.29 C104.32 120.05, 145.16 67.86, 203.8 2.26 M59.46 168.29 C117.19 102.09, 175.09 35.18, 203.8 2.26 M80.72 168.22 C130.63 111.45, 180.06 54.82, 225.06 2.19 M80.72 168.22 C126.9 114.64, 172.33 62.66, 225.06 2.19 M101.98 168.15 C137.36 125.12, 175.57 84.47, 246.32 2.12 M101.98 168.15 C135.69 129.47, 168.29 90.63, 246.32 2.12 M123.24 168.08 C178.59 105.99, 234.98 41.26, 267.58 2.05 M123.24 168.08 C172.65 111.1, 221.96 54.6, 267.58 2.05 M144.5 168.02 C199.84 101.36, 255.73 37.19, 288.84 1.98 M144.5 168.02 C190.06 118.15, 234.02 66.46, 288.84 1.98 M165.76 167.95 C215.91 110.55, 266.69 50.68, 308.13 4.17 M165.76 167.95 C213.4 113.48, 261.69 58.99, 308.13 4.17 M187.02 167.88 C234.57 115.32, 278.77 62.91, 323.48 10.9 M187.02 167.88 C223.94 122.66, 263.2 78.73, 323.48 10.9 M207.63 168.56 C249.15 121.48, 289.21 72.22, 333.59 23.66 M207.63 168.56 C256.13 111.73, 305.35 54.72, 333.59 23.66 M228.89 168.49 C269.5 120.07, 311.88 71.34, 339.11 41.7 M228.89 168.49 C269.23 123.85, 306.4 80.05, 339.11 41.7 M250.15 168.43 C286.59 127.79, 320.73 85.97, 339.37 65.78 M250.15 168.43 C270.9 144.39, 290.43 121.04, 339.37 65.78 M271.41 168.36 C288.6 152.13, 301.21 135.72, 338.98 90.62 M271.41 168.36 C294.63 142.8, 318.59 115.01, 338.98 90.62 M297.26 163 C307.48 154.34, 315.23 143.4, 339.25 114.7 M297.26 163 C306.39 151.17, 315.67 141.4, 339.25 114.7" stroke="#ffc9c9" stroke-width="2" fill="none"></path><path d="M32 0 M32 0 C87.31 1.61, 141.4 2.15, 296.36 0 M32 0 C97.84 2.38, 162.42 1.34, 296.36 0 M296.36 0 C316.51 1.84, 328.8 11.06, 328.36 32 M296.36 0 C316.53 -1.52, 329.37 12.44, 328.36 32 M328.36 32 C330.42 57.85, 330.36 85.67, 328.36 130.67 M328.36 32 C329.41 51.72, 329.45 72.85, 328.36 130.67 M328.36 130.67 C326.55 150.24, 318.04 162.17, 296.36 162.67 M328.36 130.67 C328.42 153.82, 317.8 162.81, 296.36 162.67 M296.36 162.67 C238.32 161.68, 183.04 162.18, 32 162.67 M296.36 162.67 C236.08 161.12, 177.77 161.97, 32 162.67 M32 162.67 C10.9 163.34, 0.96 150.05, 0 130.67 M32 162.67 C10.93 163.46, 1.44 151.95, 0 130.67 M0 130.67 C0.69 97.63, 0.52 66.99, 0 32 M0 130.67 C-0.18 102.61, 0.81 72.08, 0 32 M0 32 C-1.88 10.06, 11.66 0.66, 32 0 M0 32 C-1.79 9.86, 10.91 1.53, 32 0" stroke="#2f9e44" stroke-width="4" fill="none"></path></g><g transform="translate(910.7175026197474 60.87505954523522) rotate(0 56.85689874892523 12.551804663040002)"><text x="0" y="0" font-family="Virgil, Segoe UI Emoji" font-size="20.082887460863905px" fill="#2f9e44" text-anchor="start" style="white-space: pre;" direction="ltr" dominant-baseline="text-before-edge">Attachment</text></g><g stroke-linecap="round" transform="translate(496.7069476335946 11.826157182253155) rotate(0 30.811684564659117 23.651655718609618)"><path d="M8.45 7.35 C8.45 7.35, 8.45 7.35, 8.45 7.35 M8.45 7.35 C8.45 7.35, 8.45 7.35, 8.45 7.35 M11.05 29.14 C14.24 25.06, 21.48 16.57, 31.39 5.15 M9.62 30.33 C17.45 22.01, 24.76 12.76, 33.98 4.04 M17.09 46.16 C28.42 34.4, 39.13 18.64, 51.63 5.98 M17.29 44.88 C28.47 34.94, 37.93 21.99, 50.78 5.83 M30.96 53.1 C42.92 42.55, 50.73 34.06, 62.34 17.83 M31.5 54.82 C39.25 43.78, 48.57 33.61, 62.68 19.26" stroke="#ced4da" stroke-width="2" fill="none"></path><path d="M27.88 -0.85 C34.02 -1.45, 43.55 1.19, 49.14 4.42 C54.74 7.65, 59.8 13.66, 61.46 18.5 C63.12 23.35, 62.01 29.18, 59.11 33.48 C56.2 37.78, 50.1 42.3, 44 44.31 C37.89 46.32, 28.76 46.92, 22.48 45.54 C16.21 44.16, 10.18 40.22, 6.35 36.04 C2.51 31.86, -0.87 25.24, -0.53 20.47 C-0.19 15.7, 3.25 10.98, 8.38 7.43 C13.5 3.89, 26.4 0.25, 30.2 -0.8 C33.99 -1.86, 30.96 0.47, 31.15 1.1 M20.81 1.18 C26.31 -0.52, 35.14 1.42, 41.46 3.13 C47.78 4.85, 55.43 7.07, 58.74 11.48 C62.06 15.88, 62.82 24.25, 61.35 29.58 C59.87 34.9, 55.31 40.34, 49.92 43.41 C44.53 46.48, 35.75 48.26, 29.01 47.99 C22.27 47.73, 14.07 45.35, 9.47 41.83 C4.86 38.3, 2.02 32.06, 1.37 26.86 C0.72 21.66, 2.31 14.77, 5.56 10.63 C8.8 6.48, 17.95 3.43, 20.84 1.99 C23.72 0.56, 22.71 1.65, 22.87 2.01" stroke="#1864ab" stroke-width="4" fill="none"></path></g><g stroke-linecap="round"><g transform="translate(527.7098110781262 9.685025100051917) rotate(0 14.913713848285624 20.118630315158498)" fill-rule="evenodd"><path d="M-1.9 -1.37 L12.63 0.8 L25.16 10.68 L28.04 17.25 L31.94 26.73 L29.99 37.76 L27.44 39.34 L19.58 32.12 L-1.74 7.84" stroke="none" stroke-width="0" fill="#fab005" fill-rule="evenodd"></path><path d="M-0.18 1.01 C2 1.48, 10.03 0.16, 13.84 1.89 C17.65 3.61, 20.02 8.31, 22.66 11.35 C25.29 14.38, 28.19 16.84, 29.64 20.12 C31.08 23.4, 32.02 27.92, 31.33 31.01 C30.64 34.09, 30.98 42.81, 25.5 38.64 C20.02 34.47, 2.96 11.22, -1.55 5.97 M-1.74 0.49 C0.18 1.19, 8.19 1.58, 12.64 3.04 C17.09 4.5, 22.1 6.73, 24.97 9.23 C27.84 11.74, 28.98 14.31, 29.87 18.06 C30.76 21.81, 30.84 28.42, 30.31 31.73 C29.77 35.04, 31.95 42.43, 26.66 37.91 C21.36 33.39, 2.88 9.7, -1.47 4.62" stroke="#e67700" stroke-width="2" fill="none"></path></g></g><mask></mask><g stroke-linecap="round"><g transform="translate(526.6472741166654 12.771094924193676) rotate(0 -14.373007162795147 13.719896157979292)" fill-rule="evenodd"><path d="M-1.69 -1.81 L-11.07 18.48 L-26.74 26.29 L-28.48 30.23 L-28.7 18.58 L-24.14 11.37 L-13.77 0.24 L-0.67 -1.36" stroke="none" stroke-width="0" fill="#fab005" fill-rule="evenodd"></path><path d="M-0.48 -0.73 C-2.71 2.29, -8.96 13.99, -13.57 19.14 C-18.19 24.3, -25.58 29.99, -28.16 30.21 C-30.74 30.42, -29.4 23.71, -29.05 20.45 C-28.7 17.19, -28.56 14.04, -26.08 10.66 C-23.59 7.28, -18.38 2.31, -14.12 0.19 C-9.85 -1.93, -2.73 -1.34, -0.47 -2.04 M1.47 1.5 C-0.39 4.68, -6.37 12.77, -11.44 17.25 C-16.51 21.72, -26.12 28.2, -28.94 28.36 C-31.75 28.52, -29.15 21.06, -28.36 18.23 C-27.56 15.39, -26.66 14.54, -24.15 11.36 C-21.63 8.18, -17.23 1.5, -13.27 -0.85 C-9.31 -3.21, -2.84 -2.11, -0.38 -2.77" stroke="#e67700" stroke-width="2" fill="none"></path></g></g><mask></mask><g stroke-linecap="round"><g transform="translate(514.4073112384594 47.05201498847737) rotate(0 10.937472544671436 1.8738469327925031)"><path d="M-1.1 0.44 C0.84 1.51, 7.14 5.77, 11.15 5.7 C15.16 5.64, 21.23 1, 22.98 0.06 M0.52 -0.38 C2.34 0.43, 6.5 4.34, 10.19 4.08 C13.88 3.82, 20.75 -0.9, 22.66 -1.96" stroke="#1864ab" stroke-width="4" fill="none"></path></g></g><mask></mask><g stroke-linecap="round"><g transform="translate(515.0251266981904 33.17585046437944) rotate(0 4.0245852308053145 -1.533076363585451)"><path d="M-0.02 0.95 C1.25 0.51, 4.94 -2.16, 6.54 -2.2 C8.13 -2.23, 9.14 0.36, 9.54 0.75 M-1.49 0.4 C-0.21 -0.43, 4.37 -3.71, 6.03 -3.99 C7.7 -4.27, 8.08 -2.16, 8.51 -1.29" stroke="#1864ab" stroke-width="4" fill="none"></path></g></g><mask></mask><g stroke-linecap="round"><g transform="translate(530.8465698602631 31.97130298607044) rotate(0 3.2423406044636067 -1.1267904493038259)" fill-rule="evenodd"><path d="M0 0 C0 0, 0 0, 0 0 M0 0 C0 0, 0 0, 0 0" stroke="#ced4da" stroke-width="2" fill="none"></path><path d="M0.85 0.63 C1.34 0.15, 2.38 -1.81, 2.96 -1.89 C3.54 -1.97, 4.09 -0.39, 4.32 0.15 M-0.17 -0.09 C0.13 -1, 0.61 -3.96, 1.75 -3.7 C2.88 -3.44, 6.27 0.95, 6.65 1.47" stroke="#1864ab" stroke-width="4" fill="none"></path></g></g><mask></mask><g stroke-linecap="round"><g transform="translate(517.5226009656926 71.13160267860303) rotate(0 -37.32269551478112 11.027898075397616)"><path d="M-0.5 0.59 C-7.35 2.02, -27.67 5.6, -40.27 9.2 C-52.87 12.8, -70.11 20.37, -76.09 22.2 M1.44 -0.15 C-5.12 1.43, -25.58 7.3, -38.12 10.74 C-50.65 14.17, -67.35 18.78, -73.75 20.48" stroke="#1864ab" stroke-width="4" fill="none"></path></g></g><mask></mask><g stroke-linecap="round"><g transform="translate(531.0845132548329 69.26527851685933) rotate(0 38.79711941450478 9.584706375272617)"><path d="M-1.07 -0.01 C5.43 1.34, 25.59 5.42, 38.5 8.64 C51.41 11.86, 70.04 17.6, 76.37 19.34 M0.56 -1.05 C7.47 -0.07, 27.64 3.59, 40.66 7.13 C53.67 10.68, 72.74 18.15, 78.67 20.22" stroke="#1864ab" stroke-width="4" fill="none"></path></g></g><mask></mask><g stroke-linecap="round"><g transform="translate(526.1076602146222 77.47707976810307) rotate(0 -1.0251482169678638 52.833033093147606)"><path d="M-1.06 1.17 C-1.32 8.65, -2.52 27.68, -2.63 44.84 C-2.75 62.01, -2.22 94.13, -1.76 104.17 M0.58 0.75 C0.76 8.35, -0.53 28.59, -0.52 45.95 C-0.52 63.31, 0.38 94.89, 0.6 104.92" stroke="#1864ab" stroke-width="4" fill="none"></path></g></g><mask></mask><g stroke-linecap="round"><g transform="translate(516.7760678836621 191.44693408169087) rotate(0 -15.705570794423693 0.013907823208683112)"><path d="M-1.14 -0.82 C-6.28 -1.24, -27.06 -1.41, -31.87 -1.34 M0.46 1.36 C-4.22 1.56, -24.56 -0.28, -29.69 -0.37" stroke="#1864ab" stroke-width="4" fill="none"></path></g></g><mask></mask><g stroke-linecap="round"><g transform="translate(530.0891472032326 191.07367038845268) rotate(0 15.96214896706897 0.04923109448282048)"><path d="M-1.01 -1.09 C4.67 -1.04, 27.58 -0.44, 32.94 -0.51 M0.65 0.96 C6.35 1.27, 26.95 1.25, 32.43 0.96" stroke="#1864ab" stroke-width="4" fill="none"></path></g></g><mask></mask><g stroke-linecap="round"><g transform="translate(557.4759482798563 48.650797032191804) rotate(0 12.693120459288366 5.591398204410325)" fill-rule="evenodd"><path d="M0.93 -1.48 L3.42 6.96 L5.52 8.21 L19.96 3.77 L23.38 3.37 L26.38 4.63 L21.19 12.28 L11.56 -0.55 L10.99 -1.81 L-0.68 1.03" stroke="none" stroke-width="0" fill="#fab005" fill-rule="evenodd"></path><path d="M0.84 -0.14 C1.73 0.98, 0.28 4.97, 4.31 5.61 C8.34 6.24, 22.27 2.6, 25.02 3.68 C27.76 4.77, 22.77 12.9, 20.78 12.13 C18.8 11.37, 16.65 1.1, 13.11 -0.91 C9.58 -2.93, 1.88 -0.31, -0.43 0.03 M-0.18 -1.25 C1.16 0.06, 2.38 6.01, 6.51 6.54 C10.65 7.07, 22.15 0.89, 24.63 1.94 C27.11 2.99, 23.5 13.19, 21.41 12.84 C19.32 12.5, 15.54 2.19, 12.09 -0.11 C8.65 -2.42, 2.85 -1.08, 0.75 -1" stroke="#e67700" stroke-width="2" fill="none"></path></g></g><mask></mask><g stroke-linecap="round"><g transform="translate(526.4388672688692 79.2788774232481) rotate(0 0.44844505216315156 37.46096021476524)" fill-rule="evenodd"><path d="M0.54 1.28 L-2.65 34.67 L-6.1 45.21 L-11.2 54.2 L-21.4 68.69 L-22.02 72.89 L-20.68 76.05 L1.9 76.69 L13.92 75.65 L20.83 69.94 L21.55 66.29 L3.47 51.13 L-0.1 41.99 L-2.85 30.4 L1.57 -1.76" stroke="none" stroke-width="0" fill="#fab005" fill-rule="evenodd"></path><path d="M-0.97 -1.15 C-1.86 6.44, -0.9 33.1, -4.48 45.42 C-8.06 57.73, -27.08 68.27, -22.43 72.74 C-17.78 77.21, 20.1 77.32, 23.43 72.24 C26.76 67.16, 1.57 54.12, -2.46 42.27 C-6.49 30.42, -1.26 8.31, -0.76 1.12 M0.72 0.86 C-0.33 8.16, -1.12 31.76, -5.04 43.9 C-8.97 56.03, -27.68 69.3, -22.82 73.67 C-17.95 78.03, 20.41 75.26, 24.13 70.09 C27.85 64.93, 3.48 54.25, -0.5 42.67 C-4.48 31.1, -0.08 7.61, 0.25 0.66" stroke="#1864ab" stroke-width="4" fill="none"></path></g></g><mask></mask><g stroke-linecap="round"><g transform="translate(82.29839485910998 315.9277302982068) rotate(0 169.74623776924818 -103.37410192989114)"><path d="M-1.05 -0.19 C11.92 -31.38, 20.57 -153.37, 77.5 -187.09 C134.44 -220.82, 296.58 -199.91, 340.55 -202.54 M0.59 -1.33 C13.46 -32.36, 20.11 -152.35, 76.65 -185.72 C133.19 -219.1, 295.62 -198.83, 339.86 -201.59" stroke="#1e1e1e" stroke-width="4" fill="none"></path></g><g transform="translate(82.29839485910998 315.9277302982068) rotate(0 169.74623776924818 -103.37410192989114)"><path d="M311.1 -191.74 C318.55 -194.13, 325.59 -195.4, 338.16 -200.54 M311.9 -192.08 C318.05 -193.79, 322.75 -195.7, 340.72 -201.73" stroke="#1e1e1e" stroke-width="4" fill="none"></path></g><g transform="translate(82.29839485910998 315.9277302982068) rotate(0 169.74623776924818 -103.37410192989114)"><path d="M311.62 -212.25 C318.94 -209.12, 325.85 -204.84, 338.16 -200.54 M312.42 -212.59 C318.39 -210.07, 322.98 -207.73, 340.72 -201.73" stroke="#1e1e1e" stroke-width="4" fill="none"></path></g></g><mask></mask><g transform="translate(134.51390225735668 189.40553929476437) rotate(0 103.44762842417731 14.560093409126239)"><text x="0" y="0" font-family="Virgil, Segoe UI Emoji" font-size="23.296149454602112px" fill="#1e1e1e" text-anchor="start" style="white-space: pre;" direction="ltr" dominant-baseline="text-before-edge">Sends Attachment</text></g><g stroke-linecap="round"><g transform="translate(590.3954476189683 112.08642257043812) rotate(0 136.85551590180057 2.039042375456802)"><path d="M-0.18 1.06 C45.83 1.51, 229.43 3.17, 275.44 3.51 M-1.73 0.56 C44.2 0.6, 228.44 0.99, 274.65 1.65" stroke="#1e1e1e" stroke-width="4" fill="none"></path></g><g transform="translate(590.3954476189683 112.08642257043812) rotate(0 136.85551590180057 2.039042375456802)"><path d="M248.14 12.21 C254.19 10.51, 260.59 8.3, 275.03 0.82 M245.44 10.73 C254.31 10.09, 261.17 5.76, 275.3 2.64" stroke="#1e1e1e" stroke-width="4" fill="none"></path></g><g transform="translate(590.3954476189683 112.08642257043812) rotate(0 136.85551590180057 2.039042375456802)"><path d="M248.29 -8.31 C254.43 -4.9, 260.8 -2.01, 275.03 0.82 M245.59 -9.79 C254.29 -5.18, 261.11 -4.27, 275.3 2.64" stroke="#1e1e1e" stroke-width="4" fill="none"></path></g></g><mask></mask><g transform="translate(654.7104199702499 60.89163703740769) rotate(0 67.05000305175781 18.576670901299167)"><text x="0" y="0" font-family="Virgil, Segoe UI Emoji" font-size="29.72267344207857px" fill="#1e1e1e" text-anchor="start" style="white-space: pre;" direction="ltr" dominant-baseline="text-before-edge">Executes</text></g><g stroke-linecap="round"><g transform="translate(938.8335450649556 378.1846814268847) rotate(0 60.781970979240214 -104.49306926555641)"><path d="M0.23 0.23 C20.65 -34.47, 102.4 -174.32, 122.67 -209.22 M-1.11 -0.69 C19.15 -35.13, 101.5 -173.31, 121.81 -207.87" stroke="#1e1e1e" stroke-width="4" fill="none"></path></g><g transform="translate(938.8335450649556 378.1846814268847) rotate(0 60.781970979240214 -104.49306926555641)"><path d="M116.66 -178.11 C117.66 -188.68, 119.48 -196.82, 120.36 -209.39 M116.48 -177.89 C117.93 -186.13, 118.74 -192.97, 122.27 -207.93" stroke="#1e1e1e" stroke-width="4" fill="none"></path></g><g transform="translate(938.8335450649556 378.1846814268847) rotate(0 60.781970979240214 -104.49306926555641)"><path d="M99.01 -188.56 C105.45 -195.9, 112.8 -200.76, 120.36 -209.39 M98.83 -188.35 C104.51 -194.01, 109.52 -198.36, 122.27 -207.93" stroke="#1e1e1e" stroke-width="4" fill="none"></path></g></g><mask></mask><g transform="translate(840.4273965067241 272.7495222573493) rotate(0 47.788976189737696 17.070454341734376)"><text x="0" y="0" font-family="Virgil, Segoe UI Emoji" font-size="27.31272694677495px" fill="#1e1e1e" text-anchor="start" style="white-space: pre;" direction="ltr" dominant-baseline="text-before-edge">Control</text></g><g transform="translate(302.20601255557085 467.5535306277293) rotate(0 164.31689936284147 22.593248393471868)"><text x="0" y="0" font-family="Virgil, Segoe UI Emoji" font-size="36.149197429554924px" fill="#1e1e1e" text-anchor="start" style="white-space: pre;" direction="ltr" dominant-baseline="text-before-edge">Restricted Control</text></g><g stroke-linecap="round" transform="translate(634.1242824981946 740.4380628934036) rotate(0 78.96574330215572 33.63883649694708)"><path d="M4.48 3.89 C4.48 3.89, 4.48 3.89, 4.48 3.89 M4.48 3.89 C4.48 3.89, 4.48 3.89, 4.48 3.89 M0.94 14.06 C4.62 11.43, 8.58 6.18, 10.78 2.74 M0.94 14.06 C2.8 11.18, 4.76 10.16, 10.78 2.74 M1.33 19.71 C5.45 15.06, 8.62 11.07, 17.73 0.84 M1.33 19.71 C5.08 14.51, 10.86 9.42, 17.73 0.84 M1.07 26.1 C11.11 16.17, 19 6.82, 22.72 1.2 M1.07 26.1 C6.55 19.68, 11.36 14.35, 22.72 1.2 M1.46 31.75 C8.66 21.44, 17.22 15.46, 28.36 0.8 M1.46 31.75 C7.21 25.02, 14.27 17.32, 28.36 0.8 M1.2 38.14 C9.75 28.2, 18.9 16.75, 33.35 1.16 M1.2 38.14 C14.09 24.89, 26.21 8.71, 33.35 1.16 M0.94 44.54 C10.39 34.02, 22.33 21.22, 38.99 0.77 M0.94 44.54 C13 30, 26.17 14.57, 38.99 0.77 M1.33 50.19 C11.72 39, 21.59 25.98, 43.98 1.13 M1.33 50.19 C16.46 31.62, 33.09 13.9, 43.98 1.13 M1.73 55.83 C14.83 38.67, 28.82 23.24, 49.62 0.73 M1.73 55.83 C14.48 39.49, 29.83 24.76, 49.62 0.73 M3.44 59.96 C16.27 46.63, 26.5 34.08, 54.61 1.1 M3.44 59.96 C17.85 44.02, 32.11 27.63, 54.61 1.1 M5.14 64.1 C18.08 49.08, 30.81 35.69, 59.6 1.46 M5.14 64.1 C21.15 46.12, 37.37 27.76, 59.6 1.46 M8.82 65.97 C24.92 47.46, 39.46 30.62, 65.24 1.06 M8.82 65.97 C26.55 45.21, 46.08 23.84, 65.24 1.06 M11.84 68.59 C23.37 52.97, 34.44 40.45, 70.23 1.42 M11.84 68.59 C27.73 50.72, 42.75 33.2, 70.23 1.42 M17.48 68.2 C37.26 44.86, 55.25 21.93, 75.87 1.03 M17.48 68.2 C32.64 52.1, 46.57 35.17, 75.87 1.03 M22.47 68.56 C43.33 44.14, 68.33 19.44, 80.86 1.39 M22.47 68.56 C43.83 44.16, 67.03 17.79, 80.86 1.39 M27.45 68.92 C52.47 40.51, 73.2 15.34, 86.5 0.99 M27.45 68.92 C50.1 43.03, 72.38 17.38, 86.5 0.99 M33.1 68.52 C53.61 45.31, 72.01 24.94, 91.49 1.35 M33.1 68.52 C50.35 47.97, 70.01 26.16, 91.49 1.35 M38.08 68.88 C61.01 45.38, 78.75 21.36, 96.47 1.71 M38.08 68.88 C55.78 47.08, 75.74 26.74, 96.47 1.71 M43.73 68.49 C61.11 49.26, 78.33 31.3, 102.12 1.32 M43.73 68.49 C58.61 50.81, 72.74 34.72, 102.12 1.32 M48.71 68.85 C72.96 39.66, 94.68 15.7, 107.1 1.68 M48.71 68.85 C64.44 50.84, 78.51 32.01, 107.1 1.68 M54.36 68.45 C72.4 49.2, 90.34 28.66, 112.75 1.28 M54.36 68.45 C68.3 52.45, 81.7 37.27, 112.75 1.28 M59.34 68.81 C70.47 55.97, 82.73 39.86, 117.73 1.64 M59.34 68.81 C77.65 48.41, 96.41 27.53, 117.73 1.64 M64.33 69.17 C82.93 49.14, 100.3 30.67, 122.72 2 M64.33 69.17 C76.37 54.54, 89.6 41.08, 122.72 2 M69.97 68.78 C89.57 47.49, 106.59 28.47, 128.36 1.61 M69.97 68.78 C89.47 47.02, 108.08 24.17, 128.36 1.61 M74.96 69.14 C98.49 41.54, 120.66 15.87, 133.35 1.97 M74.96 69.14 C87.78 56.12, 99.93 41.73, 133.35 1.97 M80.6 68.74 C103.39 43.44, 123.62 19.21, 138.99 1.57 M80.6 68.74 C97.52 48.41, 113.4 28.81, 138.99 1.57 M85.59 69.1 C108.78 43.47, 132.44 17.57, 143.98 1.93 M85.59 69.1 C106.45 45.03, 127.76 19.71, 143.98 1.93 M91.23 68.71 C107.68 49.73, 126.54 27.64, 149.62 1.54 M91.23 68.71 C111.7 45.22, 132.1 22.02, 149.62 1.54 M96.22 69.07 C109.34 55.13, 123.9 37.21, 152.64 4.16 M96.22 69.07 C112.75 51.3, 127.82 33.55, 152.64 4.16 M101.21 69.43 C116.97 49.01, 136.41 29.67, 156.32 6.03 M101.21 69.43 C119.59 48.32, 138.78 26.33, 156.32 6.03 M106.85 69.03 C119.46 55.6, 130.93 40.73, 158.02 10.17 M106.85 69.03 C121.9 54.01, 135.6 38.37, 158.02 10.17 M111.84 69.39 C126.81 50.79, 141.91 32.62, 159.73 14.3 M111.84 69.39 C126.41 52.64, 142.47 35.68, 159.73 14.3 M117.48 69 C128.25 58.55, 134.38 49.1, 159.47 20.7 M117.48 69 C129.6 55.21, 142.05 40.47, 159.47 20.7 M122.47 69.36 C134.72 55.64, 145.18 42.03, 159.21 27.1 M122.47 69.36 C134.98 53.02, 149.67 37.52, 159.21 27.1 M127.46 69.72 C136.55 58.51, 147.58 45.3, 158.95 33.49 M127.46 69.72 C136.1 60.01, 144.37 49.71, 158.95 33.49 M133.1 69.33 C139.67 60.33, 151.12 50.01, 159.34 39.14 M133.1 69.33 C140.33 62.55, 147.13 53.73, 159.34 39.14 M138.09 69.69 C145.72 61.08, 152.5 53.51, 159.08 45.53 M138.09 69.69 C146.1 61.83, 151.33 53.77, 159.08 45.53 M143.73 69.29 C148.42 64.77, 154.59 58.39, 158.82 51.93 M143.73 69.29 C149.28 64.69, 152.87 57.87, 158.82 51.93" stroke="#ffc9c9" stroke-width="0.5" fill="none"></path><path d="M16.82 0 M16.82 0 C62.31 -0.79, 109.6 -0.01, 141.11 0 M16.82 0 C64.64 -1.23, 110.3 -0.4, 141.11 0 M141.11 0 C154.28 -1.54, 157.54 4.47, 157.93 16.82 M141.11 0 C152.72 0.68, 159.55 3.34, 157.93 16.82 M157.93 16.82 C158.54 25.35, 159.19 37.29, 157.93 50.46 M157.93 16.82 C158.54 26.06, 157.8 34.8, 157.93 50.46 M157.93 50.46 C158.13 61.93, 152.55 66.57, 141.11 67.28 M157.93 50.46 C157.8 62.72, 150.67 67.92, 141.11 67.28 M141.11 67.28 C103.16 66.6, 68.46 67.45, 16.82 67.28 M141.11 67.28 C109.62 68.86, 79.58 68.49, 16.82 67.28 M16.82 67.28 C4.59 67.59, -0.94 62.77, 0 50.46 M16.82 67.28 C4.4 69.41, 0.27 61.64, 0 50.46 M0 50.46 C-1.05 40.72, -0.41 32.9, 0 16.82 M0 50.46 C0.08 40.29, 1.08 31.03, 0 16.82 M0 16.82 C-1.64 6.71, 7.06 1.41, 16.82 0 M0 16.82 C-1.3 4.98, 6.08 1.8, 16.82 0" stroke="#e03131" stroke-width="1" fill="none"></path></g><g transform="translate(654.1625457958926 761.1605059164626) rotate(0 57.882459926805495 13.740609484346123)"><text x="0" y="0" font-family="Virgil, Segoe UI Emoji" font-size="21.98497517495387px" fill="#e03131" text-anchor="start" style="white-space: pre;" direction="ltr" dominant-baseline="text-before-edge">DCRat.exe</text></g><g stroke-linecap="round"><g transform="translate(52.29112937144964 504.4709496473597) rotate(0 282.805099925582 139.06048657445308)"><path d="M-0.79 0.67 C9.67 41.82, -31.69 199.99, 62.9 245.89 C157.48 291.79, 482.9 270.86, 566.74 276.07 M0.99 -0.02 C11.32 41.38, -32.04 200.95, 62.22 247.19 C156.48 293.44, 482.52 272.78, 566.54 277.45" stroke="#1e1e1e" stroke-width="4" fill="none"></path></g><g transform="translate(52.29112937144964 504.4709496473597) rotate(0 282.805099925582 139.06048657445308)"><path d="M539.48 288.6 C546.53 286.52, 556.31 281.97, 568.54 275.74 M537.73 287.78 C546.18 284.49, 554.04 281.66, 566.78 276.98" stroke="#1e1e1e" stroke-width="4" fill="none"></path></g><g transform="translate(52.29112937144964 504.4709496473597) rotate(0 282.805099925582 139.06048657445308)"><path d="M539.46 268.08 C546.34 272.43, 556.13 274.31, 568.54 275.74 M537.71 267.26 C546.13 269.76, 554 272.73, 566.78 276.98" stroke="#1e1e1e" stroke-width="4" fill="none"></path></g></g><mask></mask><g stroke-linecap="round"><g transform="translate(1386.5762610406819 571.0794784073928) rotate(0 -284.0162558200682 102.48361935528794)"><path d="M0.28 1.06 C-4.22 29.44, 70.71 137.76, -27.8 171.42 C-126.31 205.09, -497.04 197.7, -590.75 203.05 M-1.03 0.58 C-5.56 29.58, 70.04 138.51, -28.36 172.48 C-126.75 206.45, -497.89 199.6, -591.38 204.39" stroke="#1e1e1e" stroke-width="4" fill="none"></path></g><g transform="translate(1386.5762610406819 571.0794784073928) rotate(0 -284.0162558200682 102.48361935528794)"><path d="M-561.6 194.87 C-571.44 196.7, -576.5 200.44, -590.52 203.48 M-563.89 193.97 C-572.28 196.03, -579.59 200.12, -591.17 204.2" stroke="#1e1e1e" stroke-width="4" fill="none"></path></g><g transform="translate(1386.5762610406819 571.0794784073928) rotate(0 -284.0162558200682 102.48361935528794)"><path d="M-561.23 215.39 C-571.37 212.34, -576.51 211.21, -590.52 203.48 M-563.52 214.49 C-571.85 210.58, -579.27 208.69, -591.17 204.2" stroke="#1e1e1e" stroke-width="4" fill="none"></path></g></g><mask></mask><g transform="translate(266.91861093155603 700.0674229903138) rotate(0 59.02608082939514 31.969457565947323)"><text x="0" y="0" font-family="Virgil, Segoe UI Emoji" font-size="51.151132105515735px" fill="#1e1e1e" text-anchor="start" style="white-space: pre;" direction="ltr" dominant-baseline="text-before-edge">Buys</text></g><g transform="translate(1014.6204915049566 691.3580865786637) rotate(0 56.90271585990831 31.969457565947323)"><text x="0" y="0" font-family="Virgil, Segoe UI Emoji" font-size="51.151132105515735px" fill="#1e1e1e" text-anchor="start" style="white-space: pre;" direction="ltr" dominant-baseline="text-before-edge">Sells</text></g><g stroke-linecap="round" transform="translate(686.0000000000018 677.6335028190251) rotate(0 25.704999999999927 26.5)"><path d="M1.55 5.32 C1.55 5.32, 1.55 5.32, 1.55 5.32 M1.55 5.32 C1.55 5.32, 1.55 5.32, 1.55 5.32 M11 18.84 C14.95 14.85, 17.52 12.06, 20.84 7.52 M11 18.84 C13.55 15.14, 16.28 13.25, 20.84 7.52 M4.7 50.46 C15.36 39.86, 24.01 31.56, 46.69 2.16 M4.7 50.46 C13.87 39.5, 23.93 27.2, 46.69 2.16 M18.09 59.45 C27.33 47.95, 35.16 38.51, 55.49 16.43 M18.09 59.45 C27.34 47.88, 36.69 37.89, 55.49 16.43 M46.57 51.08 C49.41 48.3, 50.39 45.88, 52.47 44.29 M46.57 51.08 C48.58 48.61, 50.34 46.65, 52.47 44.29" stroke="#a5d8ff" stroke-width="2" fill="none"></path><path d="M12.85 0 M12.85 0 C22.45 -0.63, 29.28 0.97, 38.56 0 M12.85 0 C17.73 0.34, 22.18 -0.37, 38.56 0 M38.56 0 C48.06 0.72, 52.52 4.32, 51.41 12.85 M38.56 0 C45.26 0.52, 52.63 2.41, 51.41 12.85 M51.41 12.85 C49.5 21.94, 50.34 30.81, 51.41 40.15 M51.41 12.85 C52.35 19.66, 52.08 28.4, 51.41 40.15 M51.41 40.15 C49.84 47.68, 45.87 52.88, 38.56 53 M51.41 40.15 C50.86 49.7, 46.07 54.75, 38.56 53 M38.56 53 C33.45 51.95, 26.4 51.24, 12.85 53 M38.56 53 C30.79 53.46, 24.32 52.28, 12.85 53 M12.85 53 C4.07 54.03, 1.35 48.19, 0 40.15 M12.85 53 C3.02 52.83, -0.45 48.86, 0 40.15 M0 40.15 C-0.06 33.27, -0.99 26.38, 0 12.85 M0 40.15 C0.51 30.37, -0.48 19.81, 0 12.85 M0 12.85 C0.27 5.72, 4.35 1.15, 12.85 0 M0 12.85 C-0.98 6.51, 4.79 -0.89, 12.85 0" stroke="#1971c2" stroke-width="4" fill="none"></path></g><g transform="translate(700.2799998092669 693.4240200604045) rotate(0 11.425000190734863 10.709482758620652)"><text x="11.425000190734863" y="0" font-family="Virgil, Segoe UI Emoji" font-size="17.135172413793104px" fill="#1971c2" text-anchor="middle" style="white-space: pre;" direction="ltr" dominant-baseline="text-before-edge">ID</text></g></svg>