<svg version="1.1" xmlns="http://www.w3.org/2000/svg" viewBox="0 0 942 465.0064018009324" width="942" height="465.0064018009324" filter="invert(93%) hue-rotate(180deg)">
  <!-- svg-source:excalidraw -->
  
  <defs>
    <style class="style-fonts">
      @font-face {
        font-family: "Virgil";
        src: url("https://excalidraw.com/Virgil.woff2");
      }
      @font-face {
        font-family: "Cascadia";
        src: url("https://excalidraw.com/Cascadia.woff2");
      }
    </style>
    
  </defs>
  <g stroke-linecap="round" transform="translate(25.565885271112847 165.0685511746508) rotate(0 22.08487971290191 20.32702338216245)"><path d="M26.6 1.07 C31.24 1.57, 36.21 3.91, 39.14 7.14 C42.07 10.36, 44.09 16.22, 44.2 20.41 C44.31 24.6, 42.77 29.03, 39.82 32.27 C36.87 35.51, 31.18 38.86, 26.52 39.83 C21.86 40.79, 16.06 40.25, 11.86 38.07 C7.67 35.9, 3.19 30.91, 1.34 26.78 C-0.5 22.65, -0.63 17.16, 0.8 13.3 C2.22 9.44, 5.56 5.71, 9.9 3.61 C14.25 1.5, 23.88 1.18, 26.87 0.69 C29.86 0.2, 27.93 0.51, 27.87 0.68 M23.74 -0.78 C28.2 -0.9, 34.19 2.13, 37.44 5.62 C40.69 9.11, 42.89 15.7, 43.24 20.16 C43.6 24.63, 42.12 29.19, 39.57 32.4 C37.01 35.62, 32.19 38.28, 27.92 39.47 C23.65 40.65, 18.48 41.1, 13.93 39.51 C9.38 37.93, 2.6 33.92, 0.62 29.96 C-1.37 25.99, 0.47 20.12, 2.02 15.72 C3.57 11.31, 5.99 5.91, 9.9 3.53 C13.81 1.16, 22.85 1.84, 25.48 1.48 C28.11 1.12, 25.67 1.42, 25.67 1.35" stroke="#e03131" stroke-width="2" fill="none"></path></g><g stroke-linecap="round"><g transform="translate(45.83242954292996 205.49643343549047) rotate(0 -1.1856366709297959 24.85187776738897)"><path d="M0.39 -0.75 C0.08 7.82, -2.49 42.05, -2.76 50.46 M-0.87 1.47 C-0.69 9.82, -0.26 41.27, -0.36 48.95" stroke="#e03131" stroke-width="2" fill="none"></path></g></g><mask></mask><g stroke-linecap="round"><g transform="translate(43.2482597611413 256.76028735280715) rotate(0 9.943570664580307 15.596265654432386)"><path d="M-0.59 1.17 C2.76 6.37, 17.11 25.63, 20.48 30.45 M1.3 0.74 C4.54 5.64, 17.1 23.42, 20.04 28.54" stroke="#e03131" stroke-width="2" fill="none"></path></g></g><mask></mask><g stroke-linecap="round"><g transform="translate(42.640682455111005 255.8985562599861) rotate(0 -9.305152667143062 13.442645362721123)"><path d="M0.97 0.4 C-2.05 4.5, -15.46 21.42, -18.68 25.77 M0.02 -0.44 C-3.1 4.37, -16.42 23.16, -19.58 27.33" stroke="#e03131" stroke-width="2" fill="none"></path></g></g><mask></mask><g stroke-linecap="round"><g transform="translate(26.29983941679143 215.18467564144504) rotate(0 9.0353152151975 8.979242107667943)"><path d="M0.1 0.04 C3.17 3.13, 16.42 15.86, 19.38 18.95 M-1.31 -0.99 C1.56 1.73, 15.07 14.32, 18.65 17.22" stroke="#e03131" stroke-width="2" fill="none"></path></g></g><mask></mask><g stroke-linecap="round"><g transform="translate(46.80046357977676 233.50829290186743) rotate(0 13.770789534070275 -8.106411586589417)"><path d="M0.42 0.76 C4.78 -1.76, 21.83 -12.46, 26.22 -15.04 M-0.81 0.11 C3.89 -2.78, 23.94 -14.16, 28.35 -16.97" stroke="#e03131" stroke-width="2" fill="none"></path></g></g><mask></mask><g stroke-linecap="round"><g transform="translate(18.484976892362965 168.92459680947127) rotate(0 30.90111902706917 6.5473398338052675)"><path d="M-1.09 0.37 C9.32 2.5, 52.14 11.51, 62.9 13.58 M0.53 -0.49 C10.7 1.24, 51.29 9.39, 61.65 11.81" stroke="#e03131" stroke-width="2" fill="none"></path></g></g><mask></mask><g stroke-linecap="round" transform="translate(38.68301248288094 127.677732043893) rotate(10.74366233694554 16.35750011333016 22.990451630855887)"><path d="M-1.17 1.57 L31.16 0.16 L33.45 47.93 L0.79 45.94" stroke="none" stroke-width="0" fill="#fff"></path><path d="M1.12 0.01 C6.65 -1.36, 12.79 -0.51, 30.95 1.49 M-0.37 0.34 C9.87 0.09, 21.03 0.67, 32.31 -0.59 M34.44 -0.55 C32.76 12.86, 31.78 26.51, 33.91 44.23 M32.85 0.02 C33.83 18.78, 33.99 36.28, 33.62 45.26 M34.21 47.58 C23.04 44.85, 9.56 45.43, 0.19 45.3 M32.16 45.09 C21.04 46.51, 8.68 46.29, 0.45 45.93 M-0.06 45.05 C0.75 35.6, -1.93 27.2, 1.85 -1.49 M0.23 45.01 C1.29 29.32, -0.55 13.76, -0.45 -0.47" stroke="#e03131" stroke-width="2" fill="none"></path></g><g stroke-linecap="round"><g transform="translate(47.85770454135468 194.25462468156462) rotate(0 1.3572628989126656 4.516570262339741)" fill-rule="evenodd"><path d="M0.6 -0.76 L21.95 7.55 L25.64 3.78 L25.42 11.44 L20.86 11.22 L1.35 8.36 L-14.67 9.87 L-20.94 1.83 L-25.06 -1.46 L-17.3 5.31 L1.6 1.37" stroke="none" stroke-width="0" fill="#000" fill-rule="evenodd"></path><path d="M0.01 -0.11 C2.63 0.7, 11.47 4.77, 15.15 5.52 C18.83 6.28, 19.9 4.94, 22.09 4.41 C24.28 3.87, 27.94 1.27, 28.29 2.3 C28.63 3.33, 26.31 9.13, 24.15 10.59 C21.99 12.05, 19.53 11.68, 15.33 11.05 C11.13 10.41, 4.3 7.01, -1.03 6.78 C-6.37 6.55, -12.47 11.23, -16.68 9.68 C-20.89 8.13, -26.27 -1.46, -26.3 -2.51 C-26.34 -3.56, -21.15 2.78, -16.88 3.37 C-12.62 3.96, -3.46 1.58, -0.7 1.04 M-1.45 -1.21 C1.59 -0.3, 13.62 5.72, 17.38 6.79 C21.14 7.85, 19.18 5.7, 21.11 5.17 C23.05 4.63, 28.71 2.55, 29 3.56 C29.29 4.56, 24.92 10.09, 22.84 11.21 C20.76 12.32, 20.46 11.16, 16.51 10.22 C12.56 9.28, 4.87 5.63, -0.85 5.56 C-6.57 5.5, -13.85 10.86, -17.8 9.83 C-21.76 8.81, -24.82 0.59, -24.57 -0.61 C-24.32 -1.8, -20.3 2.77, -16.33 2.69 C-12.35 2.6, -3.75 -0.61, -0.74 -1.09" stroke="#e03131" stroke-width="1" fill="none"></path></g></g><mask></mask><g stroke-linecap="round" transform="translate(30.357602648294915 177.58809508319337) rotate(0 7.2351621642319515 5.761438751069534)"><path d="M6.28 0.33 C7.93 -0.12, 9.91 -0.03, 11.27 0.43 C12.62 0.9, 13.91 1.92, 14.4 3.12 C14.89 4.32, 14.69 6.42, 14.22 7.63 C13.75 8.84, 13.06 9.79, 11.57 10.37 C10.09 10.95, 7.04 11.35, 5.32 11.09 C3.61 10.84, 2.02 9.79, 1.28 8.84 C0.54 7.9, 0.77 6.52, 0.86 5.43 C0.96 4.35, 0.96 3.05, 1.85 2.31 C2.73 1.58, 5.21 1.53, 6.18 1.02 C7.15 0.51, 7.46 -0.82, 7.68 -0.76 M10.63 1.66 C12.25 2.09, 13.9 2.93, 14.75 3.57 C15.61 4.21, 16.11 4.39, 15.76 5.51 C15.4 6.64, 14.1 9.12, 12.62 10.31 C11.13 11.5, 8.29 12.47, 6.85 12.64 C5.41 12.81, 5.2 12.4, 3.96 11.31 C2.71 10.23, -0.03 7.49, -0.6 6.14 C-1.17 4.78, -0.23 3.94, 0.54 3.18 C1.32 2.42, 2.47 1.9, 4.04 1.56 C5.61 1.21, 9.19 1.53, 9.96 1.12 C10.72 0.7, 8.58 -0.98, 8.63 -0.94" stroke="#e03131" stroke-width="1" fill="none"></path></g><g stroke-linecap="round" transform="translate(36.923888845794636 182.13273017162828) rotate(0 0.37748672161211516 0.49568963444014)"><path d="M0.87 -0.33 C0.96 -0.47, 1.03 -0.6, 1.05 -0.47 C1.06 -0.34, 0.9 0.28, 0.95 0.44 C1.01 0.6, 1.59 0.44, 1.39 0.48 C1.2 0.51, 0.05 0.69, -0.22 0.66 C-0.49 0.63, -0.42 0.35, -0.24 0.29 C-0.06 0.23, 0.8 0.26, 0.87 0.3 C0.94 0.34, 0.33 0.42, 0.16 0.54 C0 0.66, -0.29 1.25, -0.12 1.02 C0.04 0.79, 0.87 -0.8, 1.13 -0.83 C1.39 -0.86, 1.42 0.67, 1.43 0.84 M1.75 0.84 C1.87 0.43, 2.06 -0.93, 1.99 -0.95 C1.91 -0.98, 1.63 0.2, 1.32 0.67 C1 1.14, 0.03 1.65, 0.09 1.87 C0.16 2.09, 1.8 2.28, 1.7 1.99 C1.6 1.71, -0.18 0.35, -0.51 0.16 C-0.83 -0.02, -0.27 0.65, -0.27 0.88 C-0.27 1.11, -0.65 1.54, -0.51 1.55 C-0.36 1.56, 0.59 1.42, 0.6 0.94 C0.61 0.46, -0.57 -1.27, -0.45 -1.34 C-0.32 -1.4, 1.06 0.27, 1.35 0.53" stroke="#e03131" stroke-width="1" fill="none"></path></g><g stroke-linecap="round" transform="translate(56.785791198100696 183.8447659090407) rotate(0 0.3812997188001077 0.6482095219601831)"><path d="M0.77 -0.72 C0.82 -0.68, 0.74 -0.1, 0.87 0.05 C1 0.21, 1.67 0.1, 1.54 0.21 C1.41 0.32, 0.34 0.63, 0.09 0.71 C-0.15 0.79, -0.07 0.66, 0.09 0.7 C0.26 0.74, 1.06 0.87, 1.07 0.95 C1.08 1.03, 0.38 1.11, 0.14 1.2 C-0.1 1.28, -0.47 1.78, -0.36 1.45 C-0.26 1.12, 0.48 -0.67, 0.77 -0.77 C1.07 -0.88, 1.32 0.65, 1.39 0.82 C1.47 0.99, 1.36 0.24, 1.21 0.24 M1.91 -1.01 C1.85 -1.05, 1.59 0.15, 1.3 0.64 C1 1.13, 0.06 1.69, 0.14 1.95 C0.22 2.21, 1.88 2.46, 1.79 2.21 C1.7 1.97, -0.08 0.66, -0.41 0.5 C-0.74 0.33, -0.19 1.02, -0.21 1.24 C-0.23 1.47, -0.64 1.86, -0.51 1.84 C-0.39 1.81, 0.53 1.62, 0.53 1.09 C0.53 0.57, -0.7 -1.24, -0.54 -1.32 C-0.37 -1.4, 1.19 0.32, 1.52 0.59 C1.84 0.86, 1.48 0.37, 1.43 0.28" stroke="#e03131" stroke-width="1" fill="none"></path></g><g stroke-linecap="round" transform="translate(661 47) rotate(0 135.5 159)"><path d="M32 0 M32 0 C113.63 0.54, 196.59 -0.9, 239 0 M32 0 C87.92 0.8, 143.26 1.52, 239 0 M239 0 C259.28 -1.35, 270.24 10.51, 271 32 M239 0 C260.46 2.01, 269.78 10.66, 271 32 M271 32 C269.46 88.58, 270.78 145.31, 271 286 M271 32 C273.24 85.83, 273.19 138.62, 271 286 M271 286 C270.36 307.43, 258.72 319.71, 239 318 M271 286 C271.16 309.59, 262.19 320.11, 239 318 M239 318 C194.77 315.77, 153.05 316.51, 32 318 M239 318 C166.67 316.09, 95.45 315.45, 32 318 M32 318 C10.89 317.6, 0.83 308.73, 0 286 M32 318 C10.29 316.53, 1.99 306.79, 0 286 M0 286 C-0.26 217.92, 0.57 146.37, 0 32 M0 286 C-1.18 222.68, -1.06 158.84, 0 32 M0 32 C1.65 11.68, 8.95 0.59, 32 0 M0 32 C-2.1 12.27, 9.09 0, 32 0" stroke="#1971c2" stroke-width="1" fill="none"></path></g><g stroke-linecap="round" transform="translate(686 228) rotate(0 114 58.5)"><path d="M29.25 0 M29.25 0 C82.15 0.04, 135.83 1.98, 198.75 0 M29.25 0 C95.81 0.53, 160.6 -0.29, 198.75 0 M198.75 0 C218.24 -0.92, 228.8 9.85, 228 29.25 M198.75 0 C218.23 2.22, 227.3 8.87, 228 29.25 M228 29.25 C227.99 44.51, 226.22 58.8, 228 87.75 M228 29.25 C228.93 42.45, 227.65 55.83, 228 87.75 M228 87.75 C228.3 109.18, 216.66 115.11, 198.75 117 M228 87.75 C229.37 106.52, 219.53 115.53, 198.75 117 M198.75 117 C166 115.36, 130.78 115.02, 29.25 117 M198.75 117 C164.29 117.86, 129.67 117.94, 29.25 117 M29.25 117 C10.55 115.87, 1.75 106.01, 0 87.75 M29.25 117 C9.82 119.25, -0.97 108.91, 0 87.75 M0 87.75 C-0.82 72.66, 1.51 59.63, 0 29.25 M0 87.75 C0.56 65.78, -0.68 44.39, 0 29.25 M0 29.25 C-1.5 9.11, 8.22 -1.68, 29.25 0 M0 29.25 C-1.18 8.2, 8.34 -1.24, 29.25 0" stroke="#2f9e44" stroke-width="1" fill="none"></path></g><g transform="translate(700 191) rotate(0 99.6298828125 12.5)"><text x="0" y="0" font-family="Virgil, Segoe UI Emoji" font-size="20px" fill="#2f9e44" text-anchor="start" style="white-space: pre;" direction="ltr" dominant-baseline="text-before-edge">Legitimate software</text></g><g stroke-linecap="round" transform="translate(769 282) rotate(0 55 23.5)"><path d="M11.75 0 M11.75 0 C39.78 0.13, 65.82 -1.36, 98.25 0 M11.75 0 C31.08 -0.24, 48.44 -0.69, 98.25 0 M98.25 0 C104.84 0.43, 110.96 4.71, 110 11.75 M98.25 0 C108.23 -1.67, 110.54 5.36, 110 11.75 M110 11.75 C111.08 15.28, 108.39 19.45, 110 35.25 M110 11.75 C109.48 16.11, 110.67 21.57, 110 35.25 M110 35.25 C108.65 44.28, 105.84 46.4, 98.25 47 M110 35.25 C107.99 44.14, 105.78 46.57, 98.25 47 M98.25 47 C69.06 47.42, 34.89 47.24, 11.75 47 M98.25 47 C69.31 46.63, 38.39 47.48, 11.75 47 M11.75 47 C5.03 46.11, -1.2 44.68, 0 35.25 M11.75 47 C2.69 46.14, -2.22 45.29, 0 35.25 M0 35.25 C-0.38 25.78, 0.54 18.93, 0 11.75 M0 35.25 C0.91 28.52, -0.81 22.89, 0 11.75 M0 11.75 C0.5 4.17, 2.99 0.28, 11.75 0 M0 11.75 C-0.41 2.92, 1.73 0.33, 11.75 0" stroke="#e03131" stroke-width="1" fill="none"></path></g><g transform="translate(802 295) rotate(0 21.379981994628906 12.5)"><text x="0" y="0" font-family="Virgil, Segoe UI Emoji" font-size="20px" fill="#e03131" text-anchor="start" style="white-space: pre;" direction="ltr" dominant-baseline="text-before-edge">RAT</text></g><g transform="translate(720 10) rotate(0 76.25991821289062 12.5)"><text x="0" y="0" font-family="Virgil, Segoe UI Emoji" font-size="20px" fill="#1971c2" text-anchor="start" style="white-space: pre;" direction="ltr" dominant-baseline="text-before-edge">Victim's Machine</text></g><g stroke-linecap="round"><g transform="translate(75 256) rotate(0 366.86878972567155 98.95129177345902)"><path d="M-1.11 -0.04 C46.06 29.79, 175.66 147.54, 282.54 178.15 C389.41 208.75, 564.79 201.33, 640.16 183.6 C715.53 165.87, 718.87 90.56, 734.74 71.78 M0.5 -1.1 C47.6 28.93, 174.85 148.79, 281.87 179.24 C388.89 209.68, 567.12 199.84, 642.61 181.57 C718.11 163.3, 719.6 88.02, 734.85 69.64" stroke="#1971c2" stroke-width="1" fill="none"></path></g><g transform="translate(75 256) rotate(0 366.86878972567155 98.95129177345902)"><path d="M733.09 100.48 C732.38 90.43, 735.24 83.62, 736.15 70.26 M733.72 99.96 C733.48 90.23, 735.05 82.14, 735.65 69.84" stroke="#1971c2" stroke-width="1" fill="none"></path></g><g transform="translate(75 256) rotate(0 366.86878972567155 98.95129177345902)"><path d="M714.24 92.38 C718.36 84.61, 726.12 79.91, 736.15 70.26 M714.86 91.86 C720.12 84.7, 727.24 79, 735.65 69.84" stroke="#1971c2" stroke-width="1" fill="none"></path></g></g><mask></mask><g transform="translate(425 338) rotate(0 91.19995880126953 28.358225207431474)"><text x="0" y="0" font-family="Virgil, Segoe UI Emoji" font-size="45.37316033189038px" fill="#1971c2" text-anchor="start" style="white-space: pre;" direction="ltr" dominant-baseline="text-before-edge">Controls</text></g><g stroke-linecap="round"><g transform="translate(856 267) rotate(0 21.033879446159176 -46.57525445326698)"><path d="M-0.81 1.18 C6.05 -14.41, 33.68 -76.83, 40.8 -92.83 M0.96 0.76 C8.2 -15.2, 36.19 -78.56, 42.88 -94.33" stroke="#e03131" stroke-width="1" fill="none"></path></g></g><mask></mask><g stroke-linecap="round"><g transform="translate(837 258) rotate(0 -18.644583100946647 -61.02321821445133)"><path d="M-0.67 -1 C-6.94 -21.5, -31.17 -102.81, -37.35 -123.13 M1.19 1.08 C-5.31 -19.29, -32.41 -101.66, -38.48 -122.18" stroke="#e03131" stroke-width="1" fill="none"></path></g></g><mask></mask><g stroke-linecap="round"><g transform="translate(781 263) rotate(0 -26.978072230447992 -63.314635956133685)"><path d="M1.03 0.61 C-7.87 -20.48, -44.68 -104.19, -54.02 -125.42 M0.11 -0.12 C-8.9 -21.05, -46.19 -106.28, -54.98 -127.23" stroke="#e03131" stroke-width="1" fill="none"></path></g></g><mask></mask><g stroke-linecap="round"><g transform="translate(756 297) rotate(0 -41.692274170205906 -28.826489983140476)"><path d="M0.71 -1.02 C-13.32 -10.86, -69.18 -49.22, -83.1 -58.72 M-0.38 1.06 C-14.66 -8.66, -70.25 -47.94, -84.1 -57.56" stroke="#e03131" stroke-width="1" fill="none"></path></g></g><mask></mask><g transform="translate(10 66) rotate(0 58.3307427978516 16.5)"><text x="0" y="0" font-family="Virgil, Segoe UI Emoji" font-size="26.40000000000001px" fill="#1e1e1e" text-anchor="start" style="white-space: pre;" direction="ltr" dominant-baseline="text-before-edge">Attacker</text></g></svg>